<svg version="1.2" xmlns="http://www.w3.org/2000/svg" viewBox="423.01 34.41374837741728 561.8022222222221 507.03635647937415" width="562" height="508">
	<style>
		.s0 { fill: #82d5a1 } 
	</style>
	<path id="Path 0 copy" fill-rule="evenodd" class="s0" d="m688 34.62c-1.92 0.25-7.33 1.15-12 2-4.67 0.85-12.77 2.91-18 4.57-5.23 1.67-14 5.28-19.5 8.03-5.5 2.76-14.05 7.76-19 11.13-4.95 3.36-13.76 10.85-19.58 16.63-5.82 5.79-13.1 13.9-16.18 18.02-3.08 4.13-8.08 12.22-11.12 18l-5.52 10.5c-30.66 0.13-37.68 0.62-43.1 1.85-4.13 0.93-10.42 2.64-14 3.81-3.57 1.16-10.55 3.99-15.5 6.29-4.95 2.29-12.6 6.59-17 9.55-4.4 2.96-12.32 9.68-17.6 14.94-5.28 5.26-12 13.16-14.94 17.56-2.93 4.4-7 11.38-9.02 15.5-2.03 4.13-5.13 12-6.89 17.5-1.75 5.5-3.83 14.28-4.61 19.5-0.79 5.22-1.43 13.66-1.43 18.75-0.01 5.09 0.89 14.43 1.99 20.75 1.1 6.32 3.62 15.89 5.6 21.25 1.98 5.36 5.53 13.35 7.9 17.75 2.36 4.4 7 11.6 10.3 16 3.3 4.4 9.47 11.15 13.72 15 4.24 3.85 11.14 9.41 15.34 12.35 4.2 2.94 11.46 7.15 16.14 9.35 4.68 2.2 12.55 5.32 17.5 6.93 4.95 1.62 12.83 3.38 17.5 3.92 4.67 0.54 8.73 1.24 9 1.55 0.27 0.31 0.5 27.87 0.5 61.24v60.68c4.65 10.41 6.34 13.44 6.75 13.45 0.41 0.02 3.11 1.9 6 4.19 2.89 2.28 8.4 5.61 12.25 7.39 3.85 1.78 11.27 4.64 16.5 6.36 5.23 1.71 14.45 4.23 20.5 5.59 6.05 1.35 15.5 3.13 21 3.94 5.5 0.81 16.52 2.28 24.5 3.25 11.9 1.45 22.49 1.77 59 1.76 36.41-0.01 47.23-0.33 59.5-1.79 8.25-0.99 20.17-2.68 26.5-3.78 6.33-1.09 16.9-3.3 23.5-4.89 6.6-1.6 15.6-4.28 20-5.96 4.4-1.68 11.31-4.96 15.35-7.29 4.05-2.33 9.5-6.49 12.11-9.24 3.36-3.53 5.25-6.62 6.41-10.5 1.45-4.84 1.65-12.61 1.63-65l-0.02-59.5c13.97-1.94 22.18-3.83 27.27-5.46 5.09-1.62 13.98-5.34 19.75-8.27 5.77-2.92 14.1-8.05 18.5-11.38 4.4-3.34 11.53-9.86 15.84-14.48 4.31-4.63 10.38-12.23 13.49-16.91 3.1-4.68 7.38-12.55 9.5-17.5 2.12-4.95 4.92-13.05 6.21-18 1.3-4.95 2.89-13.73 3.55-19.5 0.69-6.14 0.92-14.86 0.54-21-0.35-5.78-1.54-14.55-2.64-19.5-1.1-4.95-2.96-11.93-4.14-15.5-1.17-3.57-3.71-9.65-5.63-13.5-1.92-3.85-5.62-10.15-8.22-14-2.6-3.85-7.82-9.93-11.61-13.51-3.79-3.58-10.27-8.56-14.39-11.05-4.13-2.5-9.98-5.53-13-6.73-3.02-1.2-8.65-2.93-12.5-3.84-4.52-1.08-11.25-1.66-19-1.66-8.42 0.01-14.69 0.62-21 2.04-4.95 1.12-12.83 3.53-17.5 5.36-4.67 1.83-13 5.63-18.5 8.44-5.5 2.8-13.93 7.77-18.73 11.03-4.94 3.35-8.41 6.35-8.01 6.92 0.43 0.6 0.22 0.7-0.52 0.25-0.74-0.45-2.97 0.55-5.49 2.46-2.34 1.76-9.88 8.23-16.75 14.37-6.88 6.13-17.67 16.52-24 23.07-6.33 6.55-16.3 17.52-22.18 24.38-5.87 6.86-15.54 18.8-21.5 26.55-5.95 7.74-14.2 18.65-18.32 24.24-4.13 5.59-7.95 10.18-8.5 10.18-0.55 0.01-8.88-7.98-18.5-17.75-9.63-9.77-18.74-18.77-20.25-20.01-1.51-1.23-3.09-2.24-3.5-2.25-0.41-0.01-2.33-1.65-4.25-3.64-1.92-2-5.3-4.46-7.5-5.47-2.2-1.01-5.8-1.84-8-1.84-2.2 0-5.8 0.81-8 1.8-2.2 0.98-5.97 3.56-8.37 5.72-2.41 2.17-5.22 5.63-6.25 7.69-1.03 2.06-1.89 5.89-1.91 8.5-0.02 3.4 0.65 5.74 2.36 8.25 1.32 1.93 6.34 7.55 11.16 12.5 4.83 4.95 11.53 12.33 14.89 16.39 3.37 4.07 9.73 11.72 14.15 17 4.41 5.29 11.8 14.79 16.43 21.11 4.62 6.32 9.56 12.78 10.97 14.34 1.42 1.56 4.26 3.7 6.32 4.75 2.06 1.05 5.89 2.38 8.5 2.95 3.26 0.71 6.32 0.72 9.75 0.01 2.93-0.6 7.28-2.63 10.5-4.9 5.04-3.54 6.16-5.12 13.39-18.76 4.34-8.19 10.59-19.62 13.9-25.39 3.31-5.77 9.83-16.8 14.49-24.5 4.67-7.7 9.89-16.02 11.6-18.5 1.72-2.48 3.35-4.73 3.62-5 0.27-0.27 2.75-3.86 5.5-7.96 2.75-4.1 7.86-11.3 11.36-16 3.5-4.7 10.31-13.26 15.13-19.04 4.82-5.77 13.89-15.48 20.14-21.57 6.25-6.09 15.64-14.26 20.87-18.14 5.23-3.89 14.67-9.78 21-13.08 6.33-3.31 13.98-6.7 17-7.55 3.02-0.84 8.2-1.84 11.5-2.2 3.38-0.38 9.49-0.14 14 0.55 4.64 0.7 10.52 2.43 14 4.12 3.3 1.6 8.59 4.93 11.75 7.39 3.16 2.46 7.61 6.84 9.88 9.73 2.27 2.89 5.16 7.5 6.42 10.25 1.27 2.75 3.29 7.48 4.49 10.5 1.21 3.03 2.36 6.18 2.57 7 0.2 0.83 1.07 3.98 1.92 7 0.86 3.03 1.88 9.33 2.27 14 0.38 4.68 0.41 12.33 0.06 17-0.35 4.68-0.94 9.85-1.3 11.5-0.36 1.65-1.33 5.25-2.16 8-0.82 2.75-2.03 5.58-2.7 6.29-0.66 0.72-0.86 1.28-0.45 1.25 0.41-0.02 0.23 1.42-0.41 3.21-0.64 1.79-1.43 3.48-1.75 3.75-0.33 0.27-1.93 3.2-3.57 6.5-1.64 3.3-5 8.7-7.48 12-2.47 3.3-6.98 8.42-10.02 11.38-3.04 2.95-8.9 7.65-13.02 10.43-4.13 2.79-10.2 6.28-13.5 7.78-3.3 1.49-10.5 3.97-16 5.52-8.94 2.52-11.59 2.82-25 2.82-12.53 0-16.48-0.39-24-2.35-4.95-1.3-13.27-4.31-18.5-6.69-5.23-2.39-10.85-4.35-12.5-4.35-1.65-0.01-3.56 0.32-4.24 0.73-0.68 0.4-1.47 2.19-1.75 3.98-0.41 2.6 0.14 4.09 2.74 7.42 1.79 2.3 6.25 6.46 9.91 9.25 3.66 2.8 9.96 6.73 14 8.74 4.04 2.02 8.46 3.97 9.84 4.36 1.37 0.38 3.51 1.32 4.75 2.08l2.25 1.4c0.03 76.89-0.25 86.76-1.23 87.66-0.97 0.89-3.19 0.48-9.52-1.75-4.54-1.6-9.04-2.9-10-2.89-0.96 0.01-2.2-0.4-2.75-0.9-0.55-0.5-4.15-1.61-8-2.47-3.85-0.86-12.63-2.51-19.5-3.66-6.88-1.15-13.85-2.29-15.5-2.52-1.65-0.24-5.02-0.66-7.5-0.94-2.48-0.28-13.5-1.18-24.5-2-11-0.81-29.56-1.5-41.25-1.51-11.69-0.01-21.7 0.21-22.25 0.48-0.55 0.27-1.11-0.02-1.25-0.64-0.18-0.83-0.81-0.86-2.25-0.11-1.1 0.57-11 1.8-22 2.73-11 0.92-24.27 2.32-29.5 3.1-5.23 0.79-14.9 2.59-21.5 4.01-6.6 1.42-17.96 4.57-25.25 7-7.29 2.42-13.7 4.41-14.25 4.41-0.65 0-1-15.83-1-45.5v-45.5c3.49-1.48 7.87-3.27 12-4.93 4.12-1.66 10.29-4.72 13.71-6.8 3.41-2.07 8.27-5.57 10.8-7.77 2.53-2.2 5.46-5.35 6.51-7 1.06-1.65 1.94-4.12 1.97-5.5 0.02-1.37-0.53-3.07-1.22-3.77-0.7-0.69-2.51-1.26-4.02-1.25-1.51 0.01-6.46 1.89-11 4.16-4.54 2.28-12.52 5.3-17.75 6.71-8.4 2.26-11.47 2.56-26.5 2.6-13.6 0.03-18.4-0.34-24-1.85-3.85-1.04-10.6-3.41-15-5.28-4.4-1.86-10.25-4.81-13-6.55-2.75-1.74-8.38-5.95-12.5-9.35-4.13-3.39-8.79-7.69-10.37-9.55-1.58-1.85-4.93-6.52-7.44-10.37-2.51-3.85-6.04-10.15-7.84-14-1.8-3.85-4.48-11.05-5.96-16-2.35-7.88-2.7-10.8-2.77-23.5-0.06-10.88 0.39-16.5 1.8-22.5 1.03-4.4 3.39-11.82 5.24-16.5 1.86-4.67 5.28-11.65 7.61-15.5 2.33-3.85 7.38-10.32 11.23-14.38 3.85-4.06 9.59-9.35 12.75-11.75 3.16-2.4 6.2-4.37 6.75-4.37 0.55 0 0.99-0.34 0.97-0.75-0.02-0.41 3.47-2.43 7.75-4.47 4.28-2.05 10.48-4.65 13.78-5.79 3.3-1.13 9.83-2.72 14.5-3.54 4.67-0.81 12.33-1.46 17-1.44 4.67 0.01 9 0.35 9.6 0.76 0.65 0.42 1.39 5.97 1.78 13.23 0.38 6.88 1.52 15.88 2.54 20 1.02 4.13 2.81 9.64 3.97 12.25 1.16 2.61 3.12 5.43 4.36 6.26 1.24 0.83 2.92 1.52 3.75 1.53 0.83 0.01 2.23-0.78 3.13-1.76 1.28-1.41 1.74-4.91 2.2-16.78 0.36-9.37 1.37-18.75 2.69-25 1.17-5.5 3.03-12.7 4.14-16 1.11-3.3 3.71-9.37 5.78-13.5 2.07-4.12 5.86-10.76 8.41-14.75 2.56-3.99 8.59-11.35 13.4-16.36 4.81-5.01 12.12-11.66 16.25-14.76 4.12-3.11 11.1-7.52 15.5-9.79 4.4-2.28 11.83-5.48 16.5-7.12 4.67-1.64 12.1-3.81 16.5-4.83 6.04-1.4 12.05-1.85 24.5-1.87 12.27-0.01 18.68 0.45 25 1.81 4.67 1.01 12.55 3.4 17.5 5.31 4.95 1.92 11.59 4.8 14.75 6.42 3.16 1.62 6.2 2.72 6.75 2.44 0.55-0.27 0.89-0.09 0.75 0.41-0.14 0.5 2.9 3.14 6.75 5.86 3.85 2.72 10.98 8.95 15.84 13.84 4.86 4.89 11.68 13.17 15.16 18.39 3.48 5.23 7.59 12.2 9.15 15.5 1.55 3.3 2.94 6.11 3.09 6.25 0.14 0.14 2.17-0.79 4.51-2.06 2.34-1.27 7.4-3.61 11.25-5.19 3.85-1.59 7.11-3.02 7.25-3.19 0.14-0.17-1.64-4.25-3.94-9.06-2.31-4.81-6.64-12.35-9.62-16.75-2.99-4.4-7.49-10.47-10-13.5-2.51-3.02-7.52-8.32-11.13-11.77-3.61-3.44-10.83-9.37-16.06-13.17-5.23-3.8-14-9.14-19.5-11.87-5.5-2.73-13.38-6.18-17.5-7.67-4.13-1.48-12.23-3.8-18-5.15-8.37-1.95-13.94-2.52-27.5-2.82-9.35-0.21-18.58-0.17-20.5 0.07zm260.06 171.38c-0.06 0.27-0.33 4.1-0.61 8.5-0.28 4.4-1.17 10.81-1.98 14.25-0.81 3.44-2.32 8.61-3.35 11.5-1.35 3.77-1.67 6.24-1.1 8.75 0.42 1.92 0.84 3.05 0.92 2.5 0.07-0.55 0.8 0.46 1.6 2.25 0.8 1.79 1.19 4.04 0.87 5-0.35 1.01-0.24 1.33 0.25 0.75 0.46-0.55 1.63-1.11 2.59-1.25 0.96-0.14 1.75 0.2 1.75 0.75 0 0.55-0.52 2.01-1.16 3.25-1.08 2.07-1.03 2.13 0.54 0.75 0.94-0.83 1.7-1.05 1.68-0.5-0.01 0.55-0.6 1.54-1.29 2.21-1.02 0.96-1.02 1.47-0.02 2.5 1 1.03 0.84 1.69-0.79 3.29-1.2 1.18-2.01 1.49-1.99 0.75 0.02-0.69-0.42-1.25-0.97-1.25-0.55 0-0.77 0.45-0.5 1 0.28 0.55-0.17 1.22-1 1.5-1.2 0.4-1.51-0.55-1.57-4.75l-0.07-5.25c-3.86 12.4-6.15 20.05-7.57 25-2 6.94-3.42 9.87-6.19 12.81-1.98 2.09-4.41 5.24-5.39 7-0.99 1.75-3.13 3.98-4.75 4.94-1.63 0.96-2.95 2.09-2.93 2.5 0.02 0.41-1.8 1.65-4.03 2.75-2.23 1.1-4.05 2.34-4.03 2.75 0.02 0.41-1.36 2.21-3.07 4-1.7 1.79-3.5 3.36-4 3.5-0.49 0.14-1.01 0.28-1.15 0.33-0.14 0.04-1.15 0.26-2.25 0.49-1.1 0.22-3.12 1.14-4.5 2.03-2.06 1.33-2.63 1.38-3.23 0.26-0.41-0.75-0.75-1.59-0.77-1.86-0.01-0.28-1.93-0.34-4.26-0.13-2.33 0.2-4.46 0.7-4.74 1.12-0.27 0.42-2.75 1.05-5.5 1.4-2.75 0.36-5.45 1.03-6 1.5-0.55 0.47-1.79 0.69-2.75 0.48-0.96-0.2-1.8 0.19-1.87 0.88-0.06 0.69-0.06 1.59 0 2 0.07 0.41-0.33 0.75-0.88 0.75-0.55 0-1.34 0.15-1.75 0.34-0.41 0.18-1.65 0.69-2.75 1.13-1.1 0.44-3.12 0.56-4.5 0.28-1.37-0.29-3.74-0.12-5.25 0.37-1.95 0.62-2.93 0.52-3.37-0.37-0.5-1-0.76-1-1.25 0-0.48 0.96-1.57 0.8-4.63-0.66-2.2-1.05-4.22-1.5-4.5-1-0.27 0.5-1.97 0.57-3.77 0.16-1.8-0.41-3.27-1.09-3.25-1.5 0.01-0.41-0.54-0.7-1.23-0.63-0.69 0.06-2.04 0.06-3 0-0.96-0.07-2.42-0.8-3.25-1.62-0.83-0.83-4.54-2.66-8.25-4.09-3.71-1.42-7.54-2.54-8.5-2.5-0.96 0.05-1.75-0.59-1.75-1.41 0-0.83-0.67-1.5-1.5-1.5-0.93 0-1.5 0.94-1.5 2.5 0 1.37-0.45 2.5-1 2.5-0.55 0-1.17-0.79-1.38-1.75-0.37-1.67-0.39-1.67-0.5 0-0.07 0.96-0.79 1.97-1.62 2.25-0.83 0.27-1.72 0.05-2-0.5-0.27-0.55 0.17-1 1-1 0.83 0 1.5-0.45 1.5-1 0-0.55-1.13-0.89-2.5-0.75-2.11 0.21-2.5 0.76-2.5 3.5 0 1.79-0.45 3.25-1 3.25-0.55 0-0.66 0.5-0.25 1.11 0.41 0.61 0.08 1.48-0.75 1.92-1.33 0.72-1.33 0.99 0 2.44 0.83 0.89 1.05 1.61 0.5 1.59-0.55-0.02-0.33 0.41 0.5 0.94 0.83 0.53 1.05 0.98 0.5 0.98-0.55 0.01-1.11 1.14-1.25 2.52-0.22 2.16 0.23 2.57 3.25 3 1.92 0.27 3.73 1.17 4 2 0.28 0.82 1.06 1.39 1.75 1.25 0.69-0.14 1.37 0.87 1.51 2.25 0.14 1.37 1.49 3.76 3 5.3 1.51 1.55 3.87 2.95 5.24 3.11 1.38 0.17 3.63 0.91 5 1.63 1.38 0.73 3.4 2.17 4.5 3.21 1.1 1.03 3.5 2.64 5.33 3.57 2.86 1.44 3.66 2.73 5.7 9.18 1.31 4.12 2.4 7.16 2.42 6.75 0.03-0.41 1.01-0.41 2.18 0 1.17 0.41 2.28 1.65 2.46 2.75 0.17 1.1 0.36 9.42 0.41 18.5 0.05 9.07 0.07 19.87 0.05 24-0.04 7.44-0.07 7.5-2.8 7.78-1.51 0.16-2.97 0.55-3.25 0.87-0.27 0.32-1.02 3.12-1.65 6.22-1.04 5.1-1.15 5.28-1.25 1.88-0.06-2.14-0.53-3.53-1.1-3.25-0.55 0.27-0.67 1.06-0.26 1.75q0.73 1.24-0.5 0.5c-0.68-0.41-0.9-1.29-0.49-1.96 0.55-0.89 0.08-1.02-1.75-0.51-1.37 0.38-3.51 0.7-4.75 0.71-1.24 0-2.02 0.46-1.75 1.01 0.3 0.61-0.58 0.78-2.25 0.43-1.51-0.32-3.2-0.66-3.75-0.75-0.55-0.1-1.22-0.41-1.5-0.68-0.27-0.28-2.19-1.29-4.25-2.25-3.57-1.67-3.82-1.67-5.22 0-0.92 1.1-1.48 1.29-1.5 0.5-0.02-0.69-0.7-1.03-1.53-0.75-0.83 0.27-1.5 0.05-1.5-0.5 0-0.55-0.9-1-2-1-1.17 0-2.21-0.83-2.5-2-0.27-1.1-1.29-2.05-2.25-2.12-0.96-0.06-2.2-0.05-2.75 0.04-0.55 0.08-1.52-0.43-2.16-1.13-0.64-0.71-1.32-2.61-1.5-4.21-0.19-1.61-0.9-3.07-1.59-3.25-0.91-0.24-1.25 1.46-1.25 6.17 0 3.57-0.25 7.06-0.56 7.75-0.3 0.69 0.26 1.61 1.25 2.04 1 0.44 6.31 1.48 11.81 2.33 5.5 0.85 14.28 2.44 19.5 3.55 5.23 1.1 9.95 2.42 10.5 2.94 0.55 0.51 1.79 0.92 2.75 0.91 0.96-0.01 5.46 1.29 10 2.89 6.33 2.23 8.55 2.64 9.52 1.75 0.98-0.9 1.26-10.77 1.25-44.41l-0.02-43.25c-3.49-2.16-5.62-3.1-7-3.48-1.37-0.39-5.8-2.34-9.84-4.36-4.04-2.01-10.34-5.94-14-8.74-3.66-2.79-8.12-6.95-9.91-9.25-2.6-3.33-3.15-4.82-2.74-7.42 0.28-1.79 1.07-3.58 1.75-3.98 0.68-0.41 2.59-0.74 4.24-0.73 1.65 0 7.28 1.96 12.5 4.35 5.23 2.38 13.55 5.39 18.5 6.69 7.52 1.96 11.47 2.35 24 2.35 13.41 0 16.06-0.3 25-2.82 5.5-1.55 12.7-4.03 16-5.52 3.3-1.5 9.38-4.99 13.5-7.78 4.13-2.78 9.98-7.48 13.02-10.43 3.04-2.96 7.55-8.08 10.02-11.38 2.48-3.3 5.84-8.7 7.48-12 1.64-3.3 3.24-6.23 3.57-6.5 0.32-0.28 1.11-1.96 1.75-3.75 0.64-1.79 0.82-3.23 0.41-3.21-0.41 0.03-0.21-0.53 0.45-1.25 0.67-0.71 1.88-3.54 2.7-6.29 0.83-2.75 1.8-6.35 2.16-8 0.36-1.65 0.95-6.83 1.3-11.5 0.35-4.68 0.32-12.33-0.06-17-0.39-4.68-1.41-10.98-2.27-14-0.85-3.03-1.78-6.4-2.06-7.5-0.28-1.1-1.58-4.25-2.9-7-1.32-2.75-2.45-4.78-2.51-4.5zm-8.97 41.19c-0.07 0.72-1.9 4.23-4.08 7.81-2.18 3.57-5.83 8.75-8.12 11.5-2.3 2.75-7.15 7.48-10.78 10.51-3.64 3.03-8.86 6.88-11.61 8.56-2.75 1.67-7.92 4.24-11.5 5.71-3.58 1.47-9.2 3.34-12.5 4.15-3.3 0.82-10.27 1.8-15.5 2.17-7.22 0.51-11.54 0.26-18-1.06-4.67-0.95-11.65-2.87-15.5-4.26-3.85-1.39-10.15-4.37-14-6.63-3.85-2.26-7.56-4.68-8.25-5.38-0.72-0.73-2.21-1-3.5-0.65-1.24 0.35-2.92 1.38-3.75 2.3-0.83 0.93-2.06 2.67-2.75 3.88-0.69 1.21-1.23 3.66-1.22 5.45 0.03 2.27-0.88 4.23-3 6.5-1.66 1.79-3.03 3.7-3.03 4.25 0 0.55-0.34 0.82-0.75 0.6-0.41-0.23-0.84 0.11-0.96 0.75-0.12 0.63-0.52 2.5-0.91 4.15-0.38 1.65-1.63 3.84-2.79 4.86-1.15 1.02-1.98 2.26-1.84 2.75 0.14 0.49-0.2 0.66-0.75 0.39-0.55-0.28-1.45 0.4-2 1.5-0.55 1.1-1 2.9-1 4 0 1.1-0.67 2.22-1.5 2.5-0.83 0.27-1.31 0.84-1.08 1.25 0.23 0.41 0.01 5.25-0.48 10.75-0.5 5.5-0.9 28.45-0.9 51 0.01 35.13 0.22 41.11 1.48 41.75 0.82 0.41 1.46 1.99 1.44 3.5-0.03 1.51 0.65 3.31 1.5 4 0.84 0.69 1.88 1.2 2.29 1.13 0.41-0.06 1.54-0.06 2.5 0 0.96 0.07 1.98 1.02 2.25 2.12 0.29 1.17 1.33 2 2.5 2 1.1 0 2 0.45 2 1 0 0.55 0.67 0.77 1.5 0.5 0.83-0.28 1.51 0.06 1.53 0.75 0.02 0.79 0.58 0.6 1.5-0.5 1.4-1.67 1.65-1.67 5.22 0 2.06 0.96 3.98 1.97 4.25 2.25 0.27 0.27 0.95 0.58 1.5 0.68 0.55 0.09 2.24 0.43 3.75 0.75 1.67 0.35 2.55 0.18 2.25-0.43-0.27-0.55 0.51-1.01 1.75-1.01 1.24-0.01 3.38-0.33 4.75-0.71 1.83-0.51 2.3-0.38 1.75 0.51-0.41 0.67-0.19 1.55 0.49 1.96q1.23 0.74 0.5-0.5c-0.41-0.69-0.29-1.48 0.26-1.75 0.57-0.28 1.04 1.11 1.1 3.25 0.1 3.4 0.21 3.22 1.25-1.88 0.63-3.1 1.38-5.9 1.65-6.22 0.27-0.32 1.74-0.71 3.25-0.87 2.73-0.28 2.76-0.34 2.8-7.78 0.02-4.13 0-14.93-0.05-24-0.05-9.08-0.24-17.4-0.41-18.5-0.18-1.1-1.29-2.34-2.46-2.75-1.17-0.41-2.15-0.41-2.18 0-0.02 0.41-1.11-2.63-2.42-6.75-2.04-6.45-2.84-7.74-5.7-9.18-1.83-0.93-4.23-2.54-5.33-3.57-1.1-1.04-3.12-2.48-4.5-3.21-1.37-0.72-3.62-1.46-5-1.63-1.37-0.16-3.73-1.56-5.24-3.11-1.51-1.54-2.86-3.93-3-5.3-0.14-1.38-0.82-2.39-1.51-2.25-0.69 0.14-1.48-0.43-1.75-1.25-0.27-0.83-2.08-1.73-4-2-3.02-0.43-3.47-0.84-3.25-3 0.14-1.38 0.7-2.51 1.25-2.52 0.55 0 0.33-0.45-0.5-0.98-0.83-0.53-1.05-0.96-0.5-0.94 0.55 0.02 0.33-0.7-0.5-1.59-1.33-1.45-1.33-1.72 0-2.44 0.83-0.44 1.16-1.31 0.75-1.92-0.41-0.61-0.3-1.11 0.25-1.11 0.55 0 1-1.46 1-3.25 0-2.74 0.39-3.29 2.5-3.5 1.37-0.14 2.5 0.2 2.5 0.75 0 0.55-0.67 1-1.5 1-0.83 0-1.27 0.45-1 1 0.27 0.55 1.11 0.74 1.87 0.41 0.75-0.32 1.59-1.33 1.88-2.25 0.46-1.49 0.53-1.48 0.63 0.09 0.07 0.96 0.57 1.75 1.12 1.75 0.55 0 1-1.13 1-2.5 0-1.56 0.57-2.5 1.5-2.5 0.83 0 1.5 0.67 1.5 1.5 0 0.82 0.79 1.46 1.75 1.41 0.96-0.04 4.79 1.08 8.5 2.5 3.71 1.43 7.42 3.26 8.25 4.09 0.83 0.82 2.29 1.55 3.25 1.62 0.96 0.06 2.31 0.06 3 0 0.69-0.07 1.24 0.22 1.23 0.63-0.02 0.41 1.45 1.09 3.25 1.5 1.8 0.41 3.5 0.34 3.77-0.16 0.27-0.5 2.3-0.05 4.5 1 3.06 1.46 4.15 1.62 4.63 0.66 0.49-1 0.75-1 1.25 0 0.44 0.89 1.42 0.99 3.37 0.37 1.51-0.49 3.88-0.66 5.25-0.37 1.38 0.28 3.4 0.16 4.5-0.28 1.1-0.44 2.34-0.95 2.75-1.13 0.41-0.19 1.2-0.34 1.75-0.34 0.55 0 0.95-0.34 0.88-0.75-0.06-0.41-0.06-1.31 0-2 0.07-0.69 0.91-1.08 1.87-0.88 0.96 0.21 2.2-0.01 2.75-0.48 0.55-0.47 3.25-1.14 6-1.5 2.75-0.35 5.23-0.98 5.5-1.4 0.27-0.42 2.41-0.92 4.74-1.12 2.33-0.21 4.25-0.15 4.26 0.13 0.02 0.27 0.36 1.11 0.77 1.86 0.6 1.12 1.17 1.07 3.23-0.26 1.38-0.89 3.4-1.81 4.5-2.03 1.1-0.23 2.11-0.45 2.25-0.49 0.14-0.05 0.66-0.19 1.15-0.33 0.5-0.14 2.3-1.71 4-3.5 1.71-1.79 3.09-3.59 3.07-4-0.02-0.41 1.8-1.65 4.03-2.75 2.23-1.1 4.05-2.34 4.03-2.75-0.02-0.41 1.3-1.54 2.93-2.5 1.62-0.96 3.76-3.19 4.75-4.94 0.98-1.76 3.41-4.91 5.39-7 2.77-2.94 4.19-5.87 6.19-12.81 1.42-4.95 3.71-12.6 5.08-17l2.49-8c0.13 9.45 0.44 10.4 1.64 10 0.83-0.28 1.27-0.95 1-1.5-0.27-0.55-0.05-1 0.5-1 0.55 0 0.99 0.56 0.97 1.25-0.02 0.74 0.79 0.43 1.99-0.75 1.63-1.6 1.79-2.26 0.79-3.29-1-1.03-1-1.54 0.02-2.5 0.69-0.67 1.28-1.66 1.29-2.21 0.02-0.55-0.74-0.33-1.68 0.5-1.57 1.38-1.62 1.32-0.54-0.75 0.64-1.24 1.16-2.7 1.16-3.25 0-0.55-0.79-0.89-1.75-0.75-0.96 0.14-2.13 0.7-2.59 1.25-0.49 0.58-0.6 0.26-0.25-0.75 0.32-0.96 0.03-3.11-0.66-4.78-0.69-1.67-1.6-2.68-2.03-2.25-0.43 0.43-0.72-0.43-0.65-1.91 0.08-1.48-0.32-2.97-0.87-3.31-0.55-0.34-1.05-0.03-1.11 0.69zm-146.08 48.56c-2.37 4.26-5.79 10.45-7.61 13.75-2.26 4.1-2.88 6-1.95 6 0.75 0 1.18-0.23 0.97-0.5-0.21-0.28 0.73-1.4 2.1-2.5 1.37-1.1 2.5-2.9 2.52-4 0.01-1.1 0.98-3.58 2.15-5.5 1.17-1.93 3.18-4.51 4.47-5.75 1.58-1.52 2.34-3.39 2.34-5.75 0-1.93-0.15-3.5-0.34-3.5-0.19 0-2.28 3.49-4.65 7.75zm-121.51 171.84c-2.2 0.21-9.85 0.87-17 1.47-7.15 0.59-19.08 1.97-26.5 3.07-7.42 1.1-18.9 3.28-25.5 4.84-6.6 1.56-15.6 4.23-20 5.92-4.4 1.7-9.46 4-11.25 5.1-1.79 1.11-3.25 2.68-3.25 3.51 0 0.82 1.24 2.36 2.75 3.42 1.51 1.06 6.91 3.53 12 5.5 5.41 2.09 16.41 5.01 26.5 7.03 9.49 1.89 21.08 3.93 25.75 4.52 4.67 0.6 17.5 1.75 28.5 2.57 11 0.81 30.12 1.49 42.5 1.51 12.37 0.03 29.25-0.48 37.5-1.12 8.25-0.63 19.72-1.78 25.5-2.54 5.77-0.76 12.08-1.6 14-1.86 1.92-0.26 4.17-0.53 5-0.59 0.83-0.07 4.87-0.81 9-1.65 4.12-0.84 9.3-1.89 11.5-2.33 2.2-0.44 6.92-1.79 10.5-2.99 3.58-1.21 9.37-3.61 12.87-5.34 3.5-1.72 6.77-3.58 7.25-4.13 0.49-0.55 0.55-1.86 0.13-2.91-0.43-1.1-4.34-3.55-9.25-5.81-4.67-2.14-9.06-3.65-9.75-3.34-0.69 0.31-1.06 0.22-0.82-0.19 0.23-0.41-2.58-1.59-6.25-2.62-3.68-1.02-9.6-2.47-13.18-3.22-3.58-0.74-6.73-1.14-7-0.89-0.28 0.26-0.95 0.06-1.5-0.43-0.55-0.49-6.85-1.6-14-2.47-7.15-0.87-17.28-2.07-22.5-2.67-5.23-0.6-25.25-1.24-44.5-1.42-19.25-0.18-36.8-0.15-39 0.06z"/>
</svg>