<svg version="1.2" xmlns="http://www.w3.org/2000/svg" viewBox="0 0 1408 768" width="1408" height="768">
	<style>
		.s0 { fill: #f6a03d } 
		.s1 { fill: oklch(0.564 0.15 165.73) } 
	</style>
	<g id="Background">
		<path id="Path 1" class="s0" d="m948.06 206c-0.06 0.27-0.33 4.1-0.61 8.5-0.28 4.4-1.17 10.81-1.98 14.25-0.81 3.44-2.32 8.61-3.35 11.5-1.35 3.77-1.67 6.24-1.1 8.75 0.42 1.92 0.84 3.05 0.92 2.5 0.07-0.55 0.8 0.46 1.6 2.25 0.8 1.79 1.19 4.04 0.87 5-0.35 1.01-0.24 1.33 0.25 0.75 0.46-0.55 1.63-1.11 2.59-1.25 0.96-0.14 1.75 0.2 1.75 0.75 0 0.55-0.52 2.01-1.16 3.25-1.08 2.07-1.03 2.13 0.54 0.75 0.94-0.83 1.7-1.05 1.68-0.5-0.01 0.55-0.6 1.54-1.29 2.21-1.02 0.96-1.02 1.47-0.02 2.5 1 1.03 0.84 1.69-0.79 3.29-1.2 1.18-2.01 1.49-1.99 0.75 0.02-0.69-0.42-1.25-0.97-1.25-0.55 0-0.77 0.45-0.5 1 0.27 0.55-0.17 1.22-1 1.5-1.2 0.4-1.51-0.55-1.57-4.75l-0.07-5.25c-3.86 12.4-6.15 20.05-7.57 25-2 6.94-3.42 9.87-6.19 12.81-1.98 2.09-4.41 5.24-5.39 7-0.99 1.75-3.13 3.98-4.75 4.94-1.63 0.96-2.95 2.09-2.93 2.5 0.02 0.41-1.8 1.65-4.03 2.75-2.23 1.1-4.05 2.34-4.03 2.75 0.02 0.41-1.36 2.21-3.07 4-1.7 1.79-3.5 3.36-4 3.5-0.49 0.14-1.01 0.28-1.15 0.33-0.14 0.04-1.15 0.26-2.25 0.49-1.1 0.22-3.13 1.14-4.5 2.03-2.06 1.33-2.63 1.38-3.23 0.26-0.41-0.75-0.75-1.59-0.77-1.86-0.01-0.28-1.93-0.34-4.26-0.13-2.33 0.2-4.47 0.7-4.74 1.12-0.27 0.42-2.75 1.05-5.5 1.4-2.75 0.36-5.45 1.03-6 1.5-0.55 0.47-1.79 0.69-2.75 0.48-0.96-0.2-1.8 0.19-1.87 0.88-0.06 0.69-0.06 1.59 0 2 0.07 0.41-0.33 0.75-0.88 0.75-0.55 0-1.34 0.15-1.75 0.34-0.41 0.18-1.65 0.69-2.75 1.13-1.1 0.44-3.13 0.56-4.5 0.28-1.38-0.29-3.74-0.12-5.25 0.37-1.95 0.62-2.93 0.52-3.38-0.37-0.49-1-0.75-1-1.25 0-0.47 0.96-1.56 0.8-4.62-0.66-2.2-1.05-4.23-1.5-4.5-1-0.27 0.5-1.97 0.57-3.77 0.16-1.8-0.41-3.27-1.09-3.25-1.5 0.01-0.41-0.54-0.7-1.23-0.63-0.69 0.06-2.04 0.06-3 0-0.96-0.07-2.42-0.8-3.25-1.62-0.83-0.83-4.54-2.66-8.25-4.09-3.71-1.42-7.54-2.54-8.5-2.5-0.96 0.05-1.75-0.59-1.75-1.41 0-0.83-0.67-1.5-1.5-1.5-0.93 0-1.5 0.94-1.5 2.5 0 1.37-0.45 2.5-1 2.5-0.55 0-1.17-0.79-1.38-1.75-0.37-1.67-0.39-1.67-0.5 0-0.07 0.96-0.79 1.97-1.62 2.25-0.83 0.27-1.73 0.05-2-0.5-0.27-0.55 0.17-1 1-1 0.83 0 1.5-0.45 1.5-1 0-0.55-1.13-0.89-2.5-0.75-2.11 0.21-2.5 0.76-2.5 3.5 0 1.79-0.45 3.25-1 3.25-0.55 0-0.66 0.5-0.25 1.11 0.41 0.61 0.08 1.48-0.75 1.92-1.33 0.72-1.33 0.99 0 2.44 0.83 0.89 1.05 1.61 0.5 1.59-0.55-0.02-0.33 0.41 0.5 0.94 0.83 0.53 1.05 0.98 0.5 0.98-0.55 0.01-1.11 1.14-1.25 2.52-0.22 2.16 0.23 2.57 3.25 3 1.92 0.27 3.73 1.17 4 2 0.27 0.82 1.06 1.39 1.75 1.25 0.69-0.14 1.37 0.87 1.51 2.25 0.14 1.37 1.49 3.76 3 5.3 1.51 1.55 3.86 2.95 5.24 3.11 1.37 0.17 3.62 0.91 5 1.63 1.37 0.73 3.4 2.17 4.5 3.21 1.1 1.03 3.5 2.64 5.33 3.57 2.86 1.44 3.66 2.73 5.7 9.18 1.31 4.12 2.4 7.16 2.42 6.75 0.03-0.41 1.01-0.41 2.18 0 1.17 0.41 2.28 1.65 2.46 2.75 0.17 1.1 0.36 9.42 0.41 18.5 0.05 9.07 0.07 19.87 0.05 24-0.04 7.44-0.07 7.5-2.8 7.78-1.51 0.16-2.98 0.55-3.25 0.87-0.27 0.32-1.02 3.12-1.65 6.22-1.04 5.1-1.15 5.28-1.25 1.88-0.06-2.14-0.53-3.53-1.1-3.25-0.55 0.27-0.67 1.06-0.26 1.75q0.73 1.24-0.5 0.5c-0.68-0.41-0.9-1.29-0.49-1.96 0.55-0.89 0.08-1.02-1.75-0.51-1.38 0.38-3.51 0.7-4.75 0.71-1.24 0-2.02 0.46-1.75 1.01 0.3 0.61-0.58 0.78-2.25 0.43-1.51-0.32-3.2-0.66-3.75-0.75-0.55-0.1-1.23-0.41-1.5-0.68-0.27-0.28-2.19-1.29-4.25-2.25-3.57-1.67-3.82-1.67-5.22 0-0.92 1.1-1.48 1.29-1.5 0.5-0.02-0.69-0.7-1.03-1.53-0.75-0.83 0.27-1.5 0.05-1.5-0.5 0-0.55-0.9-1-2-1-1.17 0-2.21-0.83-2.5-2-0.27-1.1-1.29-2.05-2.25-2.12-0.96-0.06-2.2-0.05-2.75 0.04-0.55 0.08-1.52-0.43-2.16-1.13-0.64-0.71-1.32-2.61-1.5-4.21-0.19-1.61-0.9-3.07-1.59-3.25-0.91-0.24-1.25 1.46-1.25 6.17 0 3.57-0.25 7.06-0.56 7.75-0.3 0.69 0.26 1.61 1.25 2.04 1 0.44 6.31 1.48 11.81 2.33 5.5 0.85 14.27 2.44 19.5 3.55 5.23 1.1 9.95 2.42 10.5 2.94 0.55 0.51 1.79 0.92 2.75 0.91 0.96-0.01 5.46 1.29 10 2.89 6.33 2.23 8.55 2.64 9.52 1.75 0.98-0.9 1.26-10.77 1.25-44.41l-0.02-43.25c-3.49-2.16-5.63-3.1-7-3.48-1.38-0.39-5.8-2.34-9.84-4.36-4.04-2.01-10.34-5.94-14-8.74-3.66-2.79-8.12-6.95-9.91-9.25-2.6-3.33-3.15-4.82-2.74-7.42 0.28-1.79 1.07-3.58 1.75-3.98 0.68-0.41 2.59-0.74 4.24-0.73 1.65 0 7.27 1.96 12.5 4.35 5.23 2.38 13.55 5.39 18.5 6.69 7.52 1.96 11.47 2.35 24 2.35 13.41 0 16.06-0.3 25-2.82 5.5-1.55 12.7-4.03 16-5.52 3.3-1.5 9.37-4.99 13.5-7.78 4.12-2.78 9.98-7.48 13.02-10.43 3.04-2.96 7.55-8.08 10.02-11.38 2.48-3.3 5.84-8.7 7.48-12 1.64-3.3 3.24-6.23 3.57-6.5 0.32-0.28 1.11-1.96 1.75-3.75 0.64-1.79 0.82-3.23 0.41-3.21-0.41 0.03-0.21-0.53 0.45-1.25 0.67-0.71 1.88-3.54 2.7-6.29 0.83-2.75 1.8-6.35 2.16-8 0.36-1.65 0.95-6.83 1.3-11.5 0.35-4.68 0.32-12.33-0.06-17-0.39-4.68-1.41-10.98-2.27-14-0.85-3.03-1.78-6.4-2.06-7.5-0.28-1.1-1.58-4.25-2.9-7-1.32-2.75-2.45-4.78-2.51-4.5zm-269.57 398.85c-1.65 1.02-4.25 3.84-5.77 6.26l-2.76 4.39c0.05 90.67 0.29 118.01 0.55 119.25 0.32 1.47 0.92 1.99 1.73 1.5q1.23-0.74 0.5 0.5c-0.41 0.69-0.4 1.98 0.01 2.87 0.41 0.89 2.1 2.45 3.75 3.47 1.97 1.22 4.94 1.86 8.68 1.88 3.72 0.02 6.22-0.49 7.25-1.47 0.86-0.83 1.68-1.26 1.82-0.98 0.14 0.29 0.92-0.18 1.75-1.04 0.83-0.86 1.05-1.54 0.5-1.51-0.55 0.04-0.1-0.58 1-1.37 1.93-1.39 2.01-2.72 2.24-38.77l0.23-37.33c-3.23 9.3-4.68 12.33-5.32 12.74-0.63 0.41-1.71 0.52-2.4 0.25-0.69-0.27-1.48 0.18-1.75 1.01-0.27 0.82-0.5 4.42-0.5 8 0 6.43 0.03 6.5 2.75 6.47 1.51-0.02 3.53 0.77 4.47 1.75 1.41 1.45 1.74 3.73 1.77 12.28 0.02 5.77-0.4 10.95-0.93 11.5-0.54 0.55-1.11 2.41-1.27 4.14-0.23 2.46-0.72 3.09-2.29 2.93-1.1-0.11-2.56-0.51-3.25-0.88-0.92-0.51-1.25 0.61-1.25 4.31 0 3.07-0.48 5.19-1.25 5.5-1 0.4-1 0.6 0 1 0.71 0.28 1.25 2.23 1.25 4.5 0 3.48-0.29 4-2.25 4.01-1.24 0.01-3.26 0.24-4.5 0.5-2.18 0.47-2.25 0.25-2.25-7.01v-7.5c-5.04 0.83-7.02 0.72-7.66 0.29-0.84-0.58-1.25-15.24-1.5-54.33-0.32-49.65-0.21-53.75 1.41-56.25 0.96-1.49 2.87-2.94 4.25-3.21 1.89-0.38 2.63-1.29 3.04-3.75 0.45-2.7 1.09-3.36 3.75-3.87 1.77-0.34 4.33-0.16 5.71 0.41 1.37 0.57 3.06 0.96 3.75 0.87 0.69-0.09 1.25 0.51 1.25 1.34 0 0.89 0.61 1.3 1.5 1 0.83-0.28 1.95 0.17 2.5 1 0.7 1.05 0.62 1.73-0.24 2.25q-1.23 0.74-0.5-0.5c0.41-0.69 0.51-1.25 0.24-1.25-0.27 0-1.51 0.93-2.75 2.06-2.04 1.87-2.06 1.99-0.25 1.31 1.84-0.68 1.88-0.59 0.53 1.19-0.8 1.07-1.03 1.61-0.5 1.2 0.53-0.41 1.55-0.19 2.26 0.5 0.72 0.68 1.28 2.48 1.25 3.99-0.02 1.51 0.41 3.87 0.96 5.25 0.55 1.37 2.4 3.96 4.1 5.75 1.71 1.79 3.81 4.6 4.68 6.25 0.87 1.65 1.88 5.02 2.26 7.5 0.44 2.89 0.17 6.29-0.75 9.5-0.79 2.75-1.52 5.51-1.61 6.14-0.1 0.65-1.26 0.94-2.68 0.68-1.38-0.26-3.17-0.99-3.98-1.64-0.96-0.76-0.8-0.11 0.44 1.82 1.05 1.65 7.04 11.55 13.31 22 6.26 10.45 12.48 20.46 13.81 22.25 1.33 1.79 3.88 4.15 5.67 5.25 2.08 1.27 5.05 2 8.25 2.02 3.58 0.03 5.96-0.61 8.4-2.24 2.46-1.65 7.2-8.61 17.24-25.28 7.61-12.65 13.87-23.45 13.9-24 0.03-0.56-0.52-0.47-1.25 0.19-1.02 0.94-2.12 0.26-5.29-3.26-2.2-2.45-4.34-4.45-4.75-4.44-0.41 0.01-0.86 1.57-1 3.48l-0.25 3.47c-7.61-5.82-8.43-7.07-8.46-9.69-0.02-1.79 0.67-3.93 1.53-4.75 0.87-0.83 1.2-1.51 0.75-1.52-0.45 0-0.29-0.34 0.36-0.75 0.64-0.4 3.21-3.88 5.71-7.73 2.49-3.85 4.9-7.45 5.35-8 0.46-0.55 1.6-2.69 2.54-4.75 0.95-2.06 1.72-4.31 1.71-5 0-0.69 1.35-2.71 3-4.5 1.66-1.79 3.03-3.59 3.05-4 0.02-0.41 1.03-1.93 2.25-3.37 1.21-1.44 3.11-3.08 4.21-3.63 1.1-0.56 3.58-0.84 5.5-0.63 1.92 0.21 4.73 0.95 6.23 1.63 1.94 0.88 2.89 2.2 3.25 4.5 0.29 1.79 1.04 3.25 1.69 3.25 0.64 0 0.87 0.34 0.5 0.75-0.36 0.41-0.1 1.33 0.59 2.04 1 1.04 0.9 1.29-0.51 1.25-0.96-0.02-1.75 0.41-1.75 0.96 0 0.55 0.67 1.67 1.5 2.5 0.83 0.82 1.5 2.17 1.5 3 0 0.82 0.34 1.68 0.75 1.9 0.41 0.22 0.87 5.29 1.02 11.25 0.2 7.96-0.07 11.04-1 11.57-0.94 0.54-0.99 1.18-0.19 2.5 0.79 1.31 0.72 2.51-0.25 4.53-1.07 2.21-1.08 3.05-0.08 4.27 0.69 0.84 0.92 1.85 0.53 2.25-0.4 0.4-0.29 1.52 0.25 2.48 0.67 1.2 0.58 2.28-0.28 3.44-1 1.36-1 1.56 0 1 0.96-0.53 1.25 1.41 1.25 8.31 0 7.56-0.24 8.92-1.5 8.5-0.83-0.28-1.56-1.2-1.63-2.06-0.08-0.86 0.31-1.28 0.86-0.94 0.55 0.34 1.05-0.42 1.1-1.69 0.1-2.27 0.08-2.28-1.4-0.31-0.83 1.1-1.44 2.9-1.36 4 0.08 1.1 0.07 2.9-0.03 4l-0.18 2c-1.37-3.19-1.75 7.1-1.79 23.25l-0.07 27.25-9-0.5v-12.5c-4.26 0.82-6.29 0.49-7.26-0.22-1.59-1.16-1.79-4.02-2.11-30.28-0.2-16.11-0.82-30.33-1.39-32-0.74-2.17-1.05 6.4-1.13 31-0.06 19.73 0.32 35.57 0.9 37.75 0.54 2.06 1.66 3.97 2.49 4.25 0.83 0.27 1.27 0.95 1 1.5-0.27 0.55 0.29 1.3 1.25 1.66 0.96 0.37 1.98 0.71 2.25 0.77 0.27 0.05 0.95 0.39 1.5 0.74 0.55 0.36 3.54 0.58 6.64 0.49 5.22-0.15 5.89-0.45 9.21-4.16 1.97-2.2 3.37-4.34 3.12-4.75-0.26-0.41-0.02-0.98 0.53-1.25 0.65-0.32 1.01-21.1 1.02-59.25 0.01-37.17-0.36-59.94-1-62-0.56-1.79-1.47-3.25-2.02-3.25-0.55 0-1-0.68-1-1.5 0-0.83-1.8-2.4-4-3.5-2.4-1.2-6-2-9-2-2.75 0-6.24 0.61-7.75 1.36-1.51 0.75-4.19 3.11-5.96 5.25-1.76 2.14-3 4.23-2.75 4.64 0.25 0.41 0.01 0.75-0.54 0.75-0.55 0-2.19 2.14-3.65 4.75-1.45 2.61-8.12 13.97-14.82 25.25-6.7 11.27-13.69 23.2-15.53 26.5l-3.33 6c5.68-5.81 7.56-7.5 7.83-7.5 0.27 0 1.29 2.45 2.25 5.44 0.96 2.99 2.2 5.17 2.75 4.85 0.55-0.32 0.43 0.05-0.27 0.81-0.69 0.77-1.26 1.74-1.25 2.15 0.01 0.41 0.47 0.52 1.02 0.25 0.55-0.28-0.14 2.09-1.53 5.25-1.38 3.16-2.51 6.76-2.5 8 0.02 1.59-0.56 2.25-1.97 2.25-1.1 0-2.52 0.11-3.15 0.25-0.63 0.14-1.5 1.15-1.93 2.25-0.43 1.1-0.81 1.44-0.85 0.75-0.04-0.69-0.52-1.25-1.07-1.25-0.56 0-0.68 0.77-0.28 1.75 0.58 1.39 0.38 1.6-1 1-0.94-0.41-1.54-0.41-1.32 0 0.22 0.41-0.86 0.75-2.4 0.75-1.54 0-2.62-0.34-2.4-0.75 0.22-0.41-0.05-0.75-0.6-0.75-0.55 0-1 0.79-0.99 1.75 0 1.37-0.36 1.21-1.7-0.75-0.94-1.38-2.62-3.18-3.73-4-1.12-0.83-2.86-2.4-3.87-3.5-1.01-1.1-3.16-4.03-4.78-6.5-1.63-2.5-3.2-6.5-3.51-9-0.44-3.54-0.17-4.88 1.26-6.28 1-0.98 2.16-1.77 2.57-1.75 0.41 0.02 0.52 0.48 0.25 1.03q-0.5 1 2 0c1.87-0.75 2.49-0.68 2.46 0.25-0.04 0.89 0.41 0.82 1.54-0.25 0.87-0.83 1.57-1.16 1.54-0.75-0.02 0.41 0.67 0.07 1.53-0.75 0.87-0.83 2.1-1.46 2.75-1.42q1.23 0.07-0.07 0.5-1.25 0.42 1 2.33c1.24 1.05 3.49 2.4 5 3 1.51 0.6 2.58 0.75 2.36 0.34-0.21-0.41-2.97-5.03-6.14-10.25-3.17-5.23-6.65-11.08-7.74-13-1.08-1.93-4.88-8.45-8.43-14.5-3.56-6.05-8.79-14.9-11.63-19.66-2.84-4.76-6.3-9.88-7.67-11.38-1.38-1.49-3.96-3.33-5.75-4.09-1.79-0.75-5.39-1.37-8-1.37-2.89-0.01-5.93 0.72-7.76 1.85zm5.43 1.86c-2.02 0.32-2.72 1.15-3.25 3.85-0.53 2.73-1.24 3.55-3.41 3.96-1.58 0.29-3.37 1.65-4.25 3.2-1.31 2.33-1.46 9.88-1.17 56.24 0.25 39.09 0.66 53.75 1.5 54.33 0.64 0.43 2.62 0.54 4.41 0.25l3.25-0.54c0 14.76 0.07 14.98 2.25 14.51 1.24-0.26 3.26-0.49 4.5-0.5 1.96-0.01 2.25-0.53 2.25-4.01 0-2.27-0.54-4.22-1.25-4.5-1-0.4-1-0.6 0-1 0.77-0.31 1.25-2.43 1.25-5.5 0-3.7 0.33-4.82 1.25-4.31 0.69 0.37 2.15 0.77 3.25 0.88 1.57 0.16 2.06-0.47 2.29-2.93 0.16-1.73 0.73-3.59 1.27-4.14 0.53-0.55 0.98-5.73 0.99-11.5 0.01-8.78-0.28-10.78-1.77-12.22-0.98-0.95-3.02-1.74-4.53-1.75-2.73-0.03-2.75-0.09-2.73-6.78 0-3.71 0.34-7.2 0.75-7.75 0.4-0.55 1.29-1 1.98-1 0.69 0 1.59-0.1 2-0.22 0.41-0.12 1.87-3.39 3.25-7.28 1.37-3.89 2.72-7.06 3-7.05 0.27 0.01 0.95 0.45 1.5 0.97 0.55 0.53 2.12 1.16 3.5 1.41 1.42 0.25 2.58-0.05 2.68-0.69 0.09-0.63 0.82-3.39 1.61-6.14 0.92-3.21 1.19-6.61 0.75-9.5-0.38-2.48-1.39-5.85-2.26-7.5-0.87-1.65-2.97-4.46-4.68-6.25-1.7-1.79-3.55-4.38-4.1-5.75-0.55-1.38-0.98-3.74-0.96-5.25 0.03-1.51-0.53-3.31-1.25-3.99-0.71-0.69-1.73-0.91-2.26-0.5-0.53 0.41-0.3-0.13 0.5-1.2 1.35-1.78 1.31-1.87-0.53-1.19-1.81 0.68-1.79 0.56 0.25-1.31 1.24-1.13 2.47-2.06 2.75-2.06 0.27 0 0.17 0.56-0.24 1.25q-0.73 1.24 0.5 0.5c0.86-0.52 0.94-1.2 0.24-2.25-0.55-0.83-1.68-1.28-2.5-1-0.89 0.3-1.5-0.11-1.5-1 0-0.83-0.56-1.43-1.25-1.34-0.69 0.09-2.49-0.36-4-1-1.51-0.64-2.86-1.09-3-1.01-0.14 0.08-1.41 0.33-2.83 0.56zm293.33 2.25c-2.51 1.21-4.86 3.27-5.75 5.04-0.83 1.65-1.5 5.47-1.5 8.5 0 3.02 0.34 5.5 0.75 5.49 0.41 0 0.75-1.02 0.75-2.25 0-1.91 0.48-2.2 3.25-1.99 3.17 0.24 3.25 0.15 3.25-3.75 0-2.89 0.42-4 1.5-4 0.93 0 1.98 1.72 2.75 4.51 0.88 3.16 1.77 4.51 3 4.5 1.09-0.01 1.75 0.75 1.75 1.99 0 1.61 0.83 2.1 4.25 2.5 4.05 0.48 4.29 0.7 5 4.5 0.41 2.2 1.2 4 1.75 4 0.55 0 1.23 0.9 1.5 2 0.27 1.1 0.95 1.77 1.5 1.5 0.55-0.28 1 0.4 1 1.5 0 1.44-0.83 2.14-3 2.5-2.67 0.44-3 0.89-3 4 0 1.92 0.45 3.72 1 4 0.56 0.28 0.68 1.48 0.27 2.75-0.4 1.24-0.85 21.71-1 45.5-0.25 40.62-0.38 43.22-2.02 42.8-0.96-0.25-2.99-0.7-4.5-1-1.53-0.31-2.75-1.21-2.75-2.05 0-0.83-0.56-1.51-1.25-1.53-0.69-0.01-2.71-1.14-4.5-2.5-3.12-2.37-3.25-2.75-3.25-9.47 0-3.85-0.56-8.01-1.25-9.25-0.69-1.24-1.7-2.57-2.25-2.96-0.57-0.41-1.07-6.48-1.15-14-0.09-7.31-0.65-15.99-1.26-19.29-0.61-3.3-1.11-8.7-1.11-12 0-3.3-0.23-7.01-0.49-8.25-0.27-1.24-0.94-2.03-1.49-1.75-0.55 0.27-1.67-0.17-2.5-1-0.83-0.83-1.31-2.51-1.07-3.75 0.23-1.24 0.53-2.48 0.65-2.75 0.13-0.28 0.27-1.7 0.33-3.17 0.05-1.46-0.14-2.48-0.41-2.26-0.27 0.22-1.05-0.38-1.72-1.33-0.67-0.96-1.23-2.08-1.25-2.49-0.02-0.41 1.21-1.92 2.72-3.35 2.15-2.03 2.93-2.3 3.58-1.25 0.64 1.05 0.73 1.02 0.39-0.15-0.28-1.02-1.73-1.5-4.48-1.5-2.55 0-5.12 0.78-6.9 2.09-1.56 1.15-3.43 3.85-4.15 6-0.97 2.89-1.05 4.95-0.3 7.91 0.56 2.2 2.21 5.12 3.66 6.5 1.83 1.73 4.17 2.65 7.56 3l4.91 0.5c0.16 43.4 0.14 56.67 0.05 57.5-0.09 0.83 0.38 2.85 1.05 4.5 0.66 1.65 1.13 3.34 1.04 3.75-0.09 0.41 0.29 0.75 0.84 0.75 0.55 0 0.77 0.45 0.5 1-0.27 0.55 0.17 1.22 1 1.5 0.83 0.27 1.29 0.84 1.03 1.25-0.25 0.41 0.99 2.19 2.75 3.95 1.77 1.76 5.47 4.23 8.22 5.49 4.2 1.93 6.67 2.3 15.5 2.3 7.51 0.01 11.78-0.48 15-1.7 2.48-0.95 5.53-2.75 6.79-4 1.41-1.41 2.52-4.02 2.88-6.79 0.4-3.14 0.09-5.48-1.04-7.75-0.97-1.94-3.04-3.86-5.13-4.75-1.92-0.83-5.98-1.5-9-1.5-3.02 0-6.29-0.39-7.25-0.86-0.96-0.48-2.54-2.73-3.5-5-1.5-3.54-1.75-7.48-1.75-27.14v-23c10.46-0.04 15.3-0.46 17.5-0.97 2.38-0.55 5.12-2.16 6.75-3.98 2.14-2.37 2.75-4.05 2.75-7.55 0-2.48-0.67-5.85-1.5-7.5-0.83-1.65-2.51-3.55-3.75-4.22-1.24-0.67-6.52-1.46-11.75-1.75l-9.5-0.53c-0.86-18.24-1.47-21.83-2.75-23.8-0.96-1.48-2.65-3.15-3.75-3.7-1.1-0.55-4.14-1.24-6.75-1.54-3.55-0.4-5.82-0.02-9 1.5zm105.5 26.6c1.24 0.24 2.25 0.89 2.25 1.44 0 0.55 1.8 1 4 1 2.2 0 4.45 0.22 5 0.5 0.55 0.27 1 1.4 1 2.5 0 1.1 0.56 2.31 1.25 2.69 0.69 0.38 2.6 1.03 4.25 1.43 1.65 0.41-2.96 0.55-10.25 0.31-8.45-0.27-13.25-0.07-13.25 0.57 0 0.55-1.71 1-3.8 1-2.09 0-4.23 0.49-4.75 1.08-0.66 0.75-1.47 0.36-2.64-1.25-0.92-1.28-1.49-2.89-1.25-3.58 0.24-0.69 1.11-1.25 1.94-1.25 0.83 0 1.72-0.9 2-2 0.49-1.94 0.39-1.95-3.25-0.38-2.06 0.89-5.78 3.01-8.25 4.71-2.47 1.7-6.7 5.35-9.38 8.13-2.68 2.77-5.27 5.83-5.75 6.79-0.76 1.53-0.35 1.48 3.38-0.42 2.34-1.2 4.92-2.48 5.75-2.86 0.83-0.38 3.3-0.59 5.5-0.48 2.2 0.12 4.45-0.11 5-0.5 0.55-0.4 2.23-0.89 3.73-1.11 2.43-0.34 2.7-0.09 2.5 2.33-0.21 2.45-0.54 2.66-3.48 2.25-1.81-0.26-3.25-0.02-3.25 0.54 0 0.55-0.45 0.77-1 0.5-0.64-0.32-0.99 3.74-0.97 11.25 0.01 6.46-0.21 11.41-0.5 11-0.29-0.41-1.43 0.04-2.54 1-1.1 0.96-2 2.31-2 3 0.01 0.69-0.54 1.59-1.22 2-0.87 0.53-1.02 0.24-0.5-1 0.46-1.1 0.16-2.21-0.81-3-1.35-1.09-1.54-0.71-1.5 3l0.04 4.25c4.65-3.1 6.67-3.78 7.5-3.5 0.83 0.27 1.5 1.62 1.5 3 0 1.37-0.92 3.74-2.03 5.25-1.12 1.51-2.02 3.31-2 4 0.01 0.69 0.93 1.47 2.03 1.75 1.9 0.47 2 1.33 2 17 0 9.08-0.22 16.5-0.5 16.5-0.28 0-2.31-1.46-4.53-3.25-2.21-1.79-4.02-3.92-4.01-4.75 0.01-0.83-1.99-3.3-4.44-5.5l-4.46-4c-0.42-19.38-0.54-27.38-0.55-30.29-0.01-4.67-0.27-5.33-2.26-5.75-1.92-0.39-2.17-0.94-1.73-3.71 0.28-1.79 0.93-4.15 1.45-5.25 0.51-1.1 1.39-3.8 1.95-6 0.55-2.2 0.8-4.23 0.56-4.5-0.25-0.28-1.3 1.52-2.33 4-1.03 2.47-2.61 7.76-3.51 11.75-0.9 3.99-1.63 9.84-1.62 13 0.01 3.16 0.62 8.67 1.36 12.25 0.74 3.58 2.71 9.42 4.38 13 1.67 3.58 5.26 8.97 7.97 12 2.72 3.02 7.38 7.12 10.36 9.11 2.97 1.98 8 4.57 11.16 5.75 3.16 1.18 9.01 2.55 13 3.04 4.31 0.54 10.39 0.54 15 0 4.26-0.49 10.75-2.14 14.41-3.65 3.66-1.51 6.81-3.31 7-4 0.19-0.69 0.68-1.04 1.09-0.79 0.41 0.25 2.33-0.8 4.25-2.32 1.92-1.53 4.57-5 5.87-7.71 2.28-4.73 2.31-5.09 0.79-8.93-0.87-2.2-2.77-5.13-4.22-6.5-1.86-1.76-4.01-2.6-7.29-2.83-4.14-0.3-5.25 0.12-10.15 3.78-3.03 2.26-7.3 4.81-9.5 5.67-2.62 1.02-6.26 1.44-10.57 1.22-5.19-0.27-7.61-0.98-11.5-3.37-2.89-1.78-6.3-5.08-8.24-8-1.81-2.73-3.79-6.77-4.39-8.97-0.6-2.2-1.1-6.7-1.1-10-0.01-4.37 0.69-7.5 2.56-11.5 1.42-3.03 3.85-6.9 5.41-8.6 1.56-1.71 4.74-4.07 7.08-5.25 2.34-1.18 5.94-2.42 8-2.76 2.06-0.33 6.22-0.1 9.25 0.52 3.37 0.68 7.82 2.67 11.5 5.14q6 4.02 9.25 3.98c1.79-0.02 4.6-0.7 6.25-1.53 1.65-0.83 3.99-2.96 5.19-4.75 1.33-1.97 2.22-4.86 2.25-7.33 0.04-2.89-0.69-5.07-2.52-7.5-1.42-1.88-4.8-4.85-7.5-6.59-2.71-1.75-7.84-4.16-11.42-5.36-4.6-1.55-9.57-2.28-17-2.52-5.78-0.18-9.49-0.14-8.25 0.11zm-210.75 0.57c-2.48 0.5-4.73 1.13-5 1.39-0.27 0.26 1.98 0.23 5-0.07 3.22-0.32 7.43-0.01 10.16 0.76 3.82 1.07 4.78 1.8 5.25 4.05 0.45 2.08 0.17 2.85-1.16 3.2-0.96 0.26-1.98 1.6-2.25 2.98-0.27 1.39-0.16 2.53 0.25 2.54 0.41 0.01 1.42 1.37 2.25 3.02 0.83 1.65 1.5 3.45 1.5 4 0 0.55-1.46 1.28-3.25 1.62-1.79 0.34-5.27 1.77-7.75 3.18-2.48 1.4-6.64 4.05-9.25 5.87-2.61 1.83-4.76 2.99-4.77 2.58 0-0.41-0.46-0.08-1 0.75-0.59 0.88-0.96 10.12-0.9 22.5 0.05 11.55 0.28 22.01 0.51 23.25 0.22 1.24 0.86 2.02 1.41 1.75 0.55-0.28 0.76-1.29 0.47-2.25-0.31-0.99 0.88-0.25 2.75 1.72 3.09 3.27 3.29 3.34 3.53 1.25 0.22-1.97 0.42-2.05 1.75-0.72 0.83 0.82 1.5 1.72 1.5 2 0 0.27-0.45 0.27-1 0-0.55-0.28-1 0.17-1 1 0 0.82 0.56 1.67 1.25 1.88 0.69 0.2 0.01 0.65-1.5 1-1.51 0.34-2.74 1.18-2.73 1.87 0.01 0.91-0.95 1.04-3.5 0.5l-3.52-0.75-0.5 13.5c-6.59-6.98-8.5-9.56-8.5-10.25 0-0.69-0.56-1.24-1.25-1.23-0.69 0.01-2.67-1.45-4.4-3.25-2.78-2.9-3.18-4.04-3.5-10.05-0.24-4.65-0.82-7.08-1.85-7.72-1.07-0.67-1.53-2.86-1.61-7.72-0.06-3.73-0.51-6.71-1-6.62-0.49 0.09-0.89-2-0.89-4.65 0-2.64 0.34-4.63 0.75-4.41 0.41 0.22 1.08-0.16 1.49-0.85q0.73-1.24-0.5-0.5c-0.68 0.41-1.24 0.3-1.24-0.25 0-0.55 0.05-1.34 0.1-1.75 0.06-0.41 0.51-0.64 1-0.5 0.5 0.14 0.62-0.31 0.28-1-0.34-0.69-0.34-2.26 0-3.5 0.35-1.26 1.17-2.03 1.87-1.75 0.9 0.36 1.32-1.17 1.5-5.5 0.14-3.3 0.92-7.35 1.75-9 0.83-1.65 2.4-3.45 3.5-4 1.1-0.55 2.37-2.24 2.83-3.75 0.45-1.51 2.59-4.09 4.75-5.73 2.15-1.64 4.91-4 6.13-5.25 1.21-1.25 2.79-2.26 3.5-2.24 0.71 0.01 0.95-0.21 0.54-0.5-0.41-0.29-2.66 0.44-5 1.63-2.34 1.19-6.65 4.45-9.57 7.25-2.93 2.8-6.49 7.11-7.91 9.59-1.42 2.47-2.64 4.95-2.72 5.5-0.08 0.55-0.64 1.9-1.25 3-0.61 1.1-1.89 4.92-2.84 8.5-1.01 3.82-1.73 10.2-1.74 15.5-0.01 4.95 0.25 10.35 0.58 12 0.32 1.65 0.84 4.35 1.14 6 0.31 1.65 1.7 5.92 3.1 9.5 1.4 3.58 4.33 8.86 6.5 11.75 2.18 2.89 6.1 6.96 8.71 9.04 2.61 2.09 7.23 4.63 10.25 5.64 3.02 1.02 7.98 2.19 11 2.6 3.02 0.41 8.09 0.34 11.25-0.14 3.16-0.49 7.87-1.9 10.47-3.14 2.59-1.24 6.76-4.35 9.25-6.91l4.53-4.66c2.97 8.33 4.49 10.43 6.75 11.82 2.25 1.38 5.01 1.99 9 2 3.17 0 5.75-0.45 5.75-1 0-0.55 0.45-0.78 1-0.5 0.55 0.27 2.12-0.63 3.5-2 1.37-1.38 2.27-2.95 2-3.5-0.27-0.55 0.06-1.15 0.75-1.33 0.98-0.27 1.19-10.08 0.97-45.75-0.24-40.91-0.44-45.71-2-48.31-0.94-1.58-3.3-3.75-5.22-4.81-2.65-1.46-4.84-1.82-9-1.48-4.79 0.38-5.92 0.91-8.75 4.06-1.79 1.99-3.25 4.52-3.25 5.62 0 1.1-0.34 2.21-0.75 2.47-0.41 0.26-2.1-0.92-3.75-2.61-1.65-1.7-4.69-4.16-6.75-5.47-2.06-1.32-6.34-3.07-9.5-3.9-3.16-0.82-8-1.45-10.75-1.39-2.75 0.07-7.02 0.53-9.5 1.03zm193 17.6c-1.38 0.25-2.95 0.8-3.5 1.22-0.55 0.41-2.8 0.66-5 0.54-2.2-0.11-4.67 0.11-5.5 0.49-0.83 0.38-3.3 1.56-5.5 2.61-3.52 1.69-4.17 2.56-5.5 7.41-0.82 3.02-1.79 5.95-2.15 6.5-0.36 0.55-0.92 2.69-1.25 4.75-0.53 3.32-0.34 3.8 1.65 4.21 1.99 0.42 2.25 1.08 2.26 5.75 0.01 2.91 0.13 10.91 0.28 17.79l0.27 12.5c6.91 6.2 8.91 8.67 8.9 9.5-0.01 0.83 1.8 2.96 4.01 4.75 2.22 1.79 4.25 3.25 4.53 3.25 0.28 0 0.5-7.42 0.5-16.5 0-15.67-0.1-16.53-2-17-1.1-0.28-2.02-1.06-2.03-1.75-0.02-0.69 0.88-2.49 2-4 1.11-1.51 2.03-3.88 2.03-5.25 0-1.38-0.67-2.73-1.5-3-0.83-0.28-2.85 0.4-4.5 1.5l-3 2c-0.08-7.96 0.11-8.34 1.46-7.25 0.97 0.79 1.27 1.9 0.81 3-0.52 1.24-0.37 1.53 0.5 1 0.68-0.41 1.23-1.31 1.22-2 0-0.69 0.9-2.04 2-3 1.11-0.96 2.25-1.41 2.54-1 0.29 0.41 0.51-4.54 0.5-11-0.02-7.51 0.33-11.57 0.97-11.25 0.55 0.27 1 0.05 1-0.5 0-0.56 1.44-0.8 3.25-0.54 3 0.42 3.27 0.23 3.48-2.5 0.13-1.63 0.13-2.9 0-2.82-0.13 0.07-1.36 0.34-2.73 0.59zm-317.22 20.79l-4.28 4.52c-5.42-2.61-8.01-4.2-9.25-5.21q-2.24-1.83-1-2.25 1.3-0.43 0.07-0.5c-0.65-0.04-1.88 0.59-2.75 1.42-0.86 0.83-1.55 1.16-1.53 0.75 0.03-0.41-0.67-0.08-1.54 0.75-1.13 1.07-1.58 1.14-1.54 0.25 0.03-0.93-0.59-1-2.46-0.25q-2.5 1-2 0c0.27-0.55 0.16-1.01-0.25-1.03-0.41-0.02-1.57 0.77-2.57 1.75-1.43 1.4-1.7 2.74-1.26 6.28 0.31 2.5 1.88 6.5 3.51 9 1.62 2.47 3.77 5.4 4.78 6.5 1.01 1.1 2.75 2.67 3.87 3.5 1.11 0.83 2.79 2.62 3.73 4 1.34 1.96 1.7 2.12 1.7 0.75-0.01-0.96 0.44-1.75 0.99-1.75 0.55 0 0.82 0.34 0.6 0.75-0.22 0.41 0.86 0.75 2.4 0.75 1.54 0 2.62-0.34 2.4-0.75-0.22-0.41 0.38-0.41 1.32 0 1.38 0.6 1.58 0.39 1-1-0.4-0.98-0.28-1.75 0.28-1.75 0.55 0 1.03 0.56 1.07 1.25 0.04 0.69 0.42 0.35 0.85-0.75 0.43-1.1 1.3-2.11 1.93-2.25 0.63-0.14 2.05-0.25 3.15-0.25 1.41 0 1.99-0.66 1.97-2.25-0.01-1.24 1.12-4.84 2.5-8 1.39-3.16 2.08-5.53 1.53-5.25-0.55 0.27-1.01 0.16-1.02-0.25-0.01-0.41 0.56-1.38 1.25-2.15 0.7-0.76 0.82-1.13 0.27-0.81-0.55 0.33-1.73-1.84-2.63-4.85-0.9-2.99-1.9-5.44-2.22-5.44-0.32 0-2.51 2.03-4.87 4.52zm191.31-427.33c-0.07 0.72-1.9 4.24-4.08 7.81-2.18 3.57-5.83 8.75-8.12 11.5-2.3 2.75-7.15 7.48-10.78 10.51-3.64 3.03-8.86 6.88-11.61 8.56-2.75 1.67-7.92 4.24-11.5 5.71-3.58 1.47-9.2 3.34-12.5 4.15-3.3 0.82-10.28 1.8-15.5 2.17-7.22 0.51-11.54 0.26-18-1.06-4.67-0.95-11.65-2.87-15.5-4.26-3.85-1.39-10.15-4.37-14-6.63-3.85-2.26-7.56-4.68-8.25-5.38-0.72-0.73-2.21-1-3.5-0.65-1.24 0.35-2.92 1.38-3.75 2.3-0.83 0.93-2.06 2.67-2.75 3.88-0.69 1.21-1.23 3.66-1.22 5.45 0.03 2.27-0.88 4.23-3 6.5-1.66 1.79-3.03 3.7-3.03 4.25 0 0.55-0.34 0.82-0.75 0.6-0.41-0.23-0.84 0.11-0.96 0.75-0.12 0.63-0.52 2.5-0.91 4.15-0.38 1.65-1.63 3.84-2.79 4.86-1.15 1.02-1.98 2.26-1.84 2.75 0.14 0.49-0.2 0.66-0.75 0.39-0.55-0.27-1.45 0.4-2 1.5-0.55 1.1-1 2.9-1 4 0 1.1-0.67 2.23-1.5 2.5-0.83 0.27-1.31 0.84-1.08 1.25 0.23 0.41 0.01 5.25-0.48 10.75-0.5 5.5-0.9 28.45-0.9 51 0.01 35.13 0.22 41.11 1.48 41.75 0.82 0.41 1.46 1.99 1.44 3.5-0.03 1.51 0.65 3.31 1.5 4 0.84 0.69 1.88 1.2 2.29 1.13 0.41-0.06 1.54-0.06 2.5 0 0.96 0.07 1.97 1.02 2.25 2.12 0.29 1.17 1.33 2 2.5 2 1.1 0 2 0.45 2 1 0 0.55 0.67 0.77 1.5 0.5 0.83-0.27 1.51 0.06 1.53 0.75 0.02 0.79 0.58 0.6 1.5-0.5 1.4-1.67 1.65-1.67 5.22 0 2.06 0.96 3.97 1.98 4.25 2.25 0.27 0.27 0.95 0.58 1.5 0.68 0.55 0.09 2.24 0.43 3.75 0.75 1.67 0.35 2.55 0.18 2.25-0.43-0.28-0.55 0.51-1.01 1.75-1.01 1.24-0.01 3.37-0.33 4.75-0.71 1.83-0.51 2.3-0.38 1.75 0.51-0.41 0.67-0.19 1.55 0.49 1.96q1.23 0.74 0.5-0.5c-0.41-0.69-0.29-1.48 0.26-1.75 0.57-0.28 1.04 1.11 1.1 3.25 0.1 3.4 0.21 3.22 1.25-1.88 0.63-3.1 1.37-5.9 1.65-6.22 0.27-0.32 1.74-0.71 3.25-0.87 2.73-0.28 2.76-0.34 2.8-7.78 0.02-4.12 0-14.93-0.05-24-0.05-9.07-0.24-17.4-0.41-18.5-0.18-1.1-1.29-2.34-2.46-2.75-1.17-0.41-2.15-0.41-2.18 0-0.02 0.41-1.11-2.62-2.42-6.75-2.04-6.45-2.84-7.74-5.7-9.18-1.83-0.93-4.23-2.54-5.33-3.57-1.1-1.04-3.13-2.48-4.5-3.21-1.38-0.72-3.63-1.46-5-1.63-1.38-0.16-3.73-1.56-5.24-3.11-1.51-1.54-2.86-3.92-3-5.3-0.14-1.37-0.82-2.39-1.51-2.25-0.69 0.14-1.48-0.43-1.75-1.25-0.28-0.82-2.08-1.73-4-2-3.02-0.43-3.47-0.84-3.25-3 0.14-1.38 0.7-2.51 1.25-2.52 0.55 0 0.33-0.45-0.5-0.98-0.83-0.53-1.05-0.96-0.5-0.94 0.55 0.02 0.33-0.7-0.5-1.59-1.33-1.45-1.33-1.72 0-2.44 0.83-0.44 1.16-1.31 0.75-1.92-0.41-0.61-0.3-1.11 0.25-1.11 0.55 0 1-1.46 1-3.25 0-2.74 0.39-3.29 2.5-3.5 1.37-0.14 2.5 0.2 2.5 0.75 0 0.55-0.67 1-1.5 1-0.83 0-1.28 0.45-1 1 0.27 0.55 1.11 0.74 1.87 0.41 0.75-0.32 1.59-1.33 1.88-2.25 0.46-1.49 0.53-1.48 0.63 0.09 0.07 0.96 0.57 1.75 1.12 1.75 0.55 0 1-1.12 1-2.5 0-1.56 0.57-2.5 1.5-2.5 0.83 0 1.5 0.68 1.5 1.5 0 0.82 0.79 1.46 1.75 1.41 0.96-0.04 4.79 1.08 8.5 2.5 3.71 1.43 7.42 3.27 8.25 4.09 0.83 0.82 2.29 1.55 3.25 1.62 0.96 0.06 2.31 0.06 3 0 0.69-0.07 1.24 0.22 1.23 0.63-0.02 0.41 1.45 1.09 3.25 1.5 1.8 0.41 3.49 0.34 3.77-0.16 0.27-0.5 2.3-0.05 4.5 1 3.06 1.46 4.15 1.62 4.62 0.66 0.5-1 0.76-1 1.25 0 0.45 0.89 1.43 0.99 3.38 0.37 1.51-0.49 3.87-0.66 5.25-0.37 1.37 0.28 3.4 0.16 4.5-0.28 1.1-0.44 2.34-0.95 2.75-1.13 0.41-0.19 1.2-0.34 1.75-0.34 0.55 0 0.95-0.34 0.88-0.75-0.06-0.41-0.06-1.31 0-2 0.07-0.69 0.91-1.08 1.87-0.88 0.96 0.21 2.2-0.01 2.75-0.48 0.55-0.47 3.25-1.14 6-1.5 2.75-0.35 5.22-0.98 5.5-1.4 0.27-0.42 2.41-0.92 4.74-1.12 2.33-0.21 4.25-0.14 4.26 0.13 0.02 0.27 0.36 1.11 0.77 1.86 0.6 1.12 1.17 1.07 3.23-0.26 1.37-0.89 3.4-1.81 4.5-2.03 1.1-0.23 2.11-0.45 2.25-0.49 0.14-0.05 0.66-0.19 1.15-0.33 0.5-0.14 2.3-1.71 4-3.5 1.71-1.79 3.09-3.59 3.07-4-0.02-0.41 1.8-1.65 4.03-2.75 2.23-1.1 4.05-2.34 4.03-2.75-0.02-0.41 1.3-1.54 2.93-2.5 1.62-0.96 3.76-3.19 4.75-4.94 0.98-1.76 3.41-4.91 5.39-7 2.77-2.94 4.19-5.87 6.19-12.81 1.42-4.95 3.71-12.6 5.08-17l2.49-8c0.13 9.45 0.44 10.4 1.64 10 0.83-0.27 1.27-0.95 1-1.5-0.28-0.55-0.05-1 0.5-1 0.55 0 0.99 0.56 0.97 1.25-0.02 0.74 0.79 0.43 1.99-0.75 1.63-1.6 1.79-2.26 0.79-3.29-1-1.03-1-1.54 0.02-2.5 0.69-0.67 1.28-1.66 1.29-2.21 0.02-0.55-0.74-0.32-1.68 0.5-1.57 1.38-1.62 1.32-0.54-0.75 0.64-1.24 1.16-2.7 1.16-3.25 0-0.55-0.79-0.89-1.75-0.75-0.96 0.14-2.13 0.7-2.59 1.25-0.49 0.58-0.6 0.26-0.25-0.75 0.32-0.96 0.03-3.11-0.66-4.78-0.69-1.67-1.6-2.68-2.03-2.25-0.43 0.43-0.72-0.43-0.65-1.91 0.08-1.48-0.32-2.97-0.87-3.31-0.55-0.34-1.05-0.03-1.11 0.69zm-146.08 48.56c-2.37 4.26-5.79 10.45-7.61 13.75-2.26 4.1-2.88 6-1.95 6 0.75 0 1.18-0.23 0.97-0.5-0.21-0.28 0.73-1.4 2.1-2.5 1.37-1.1 2.5-2.9 2.52-4 0.01-1.1 0.98-3.58 2.15-5.5 1.17-1.93 3.18-4.51 4.47-5.75 1.58-1.52 2.34-3.39 2.34-5.75 0-1.93-0.15-3.5-0.34-3.5-0.19 0-2.28 3.49-4.65 7.75zm360.25 302.06c-1.79 0.93-4.13 3.26-5.22 5.19-1.91 3.38-1.98 5.66-2.01 67.25-0.02 50.32 0.25 64.43 1.28 67 0.72 1.79 2.41 4.02 3.75 4.96 1.34 0.94 2.78 1.5 3.19 1.25 0.41-0.25 0.75-0.01 0.75 0.54 0 0.59 2.63 0.9 6.39 0.75 4.74-0.19 6.96-0.77 8.6-2.25 1.22-1.1 2.96-3.35 3.86-5 1.39-2.52 1.73-7.63 2.17-32 0.36-20.56 0.89-29.87 1.81-32 0.71-1.65 2.51-4.27 3.98-5.83 1.48-1.56 4.27-3.48 6.19-4.28 1.92-0.79 5.64-1.43 8.25-1.41 2.61 0.01 6.21 0.64 8 1.39 1.79 0.76 4.23 2.44 5.43 3.75 1.2 1.31 2.77 3.73 3.47 5.38 0.92 2.12 1.45 11.79 1.82 33 0.49 27.71 0.68 30.25 2.53 33.27 1.1 1.79 3.46 3.93 5.25 4.75 1.79 0.81 5.28 1.48 7.75 1.48 2.47 0 5.87-0.79 7.54-1.75 1.67-0.96 3.93-3.55 5.03-5.75 1.9-3.8 1.98-5.62 1.62-37-0.3-25.46-0.72-34.14-1.87-38-0.82-2.75-2.07-6.13-2.78-7.5-0.71-1.38-2.96-4.75-5-7.5-2.73-3.69-5.51-5.92-10.57-8.5-6.56-3.35-7.33-3.5-17.42-3.5-9.76 0-10.99 0.23-16.4 3-3.21 1.65-7.6 4.91-9.75 7.25-2.14 2.34-4.12 4.25-4.4 4.25-0.28 0-0.62-9.79-0.76-21.75-0.21-18.45-0.52-22.24-2-25-0.96-1.79-3.2-4.15-4.99-5.25-2.05-1.25-4.92-1.97-7.75-1.93-2.47 0.03-5.96 0.82-7.74 1.74zm-360.93 7.54c-1.19 0.63-3.1 2.39-4.25 3.9-1.14 1.51-2.08 3.2-2.08 3.75 0 0.55-0.56 1.05-1.25 1.12-0.69 0.06-1.59 0.06-2 0-0.41-0.07-0.5 0.44-0.19 1.13 0.3 0.69-0.17 1.92-1.05 2.75-0.88 0.83-1.58 2.06-1.55 2.75 0.02 0.69-0.73 2.94-1.68 5-0.94 2.06-2.08 4.2-2.54 4.75-0.45 0.55-2.86 4.15-5.35 8-2.5 3.85-5.07 7.33-5.71 7.73-0.65 0.41-0.81 0.75-0.36 0.75 0.45 0.01 0.12 0.69-0.75 1.52-0.86 0.83-1.55 2.96-1.53 4.75 0.03 2.62 0.85 3.87 4.25 6.47l4.21 3.22c0.39-5.38 0.84-6.94 1.25-6.95 0.41-0.01 2.55 1.99 4.75 4.44 3.17 3.52 4.27 4.2 5.29 3.26 0.73-0.66 1.27-0.75 1.24-0.19-0.04 0.55 0.56 0.1 1.31-1 1.29-1.87 1.47-1.67 2.71 3 0.92 3.45 1.42 13.82 1.63 33.5 0.27 25.87 0.46 28.62 2.06 29.78 0.97 0.71 3 1.04 4.51 0.75l2.75-0.53v12.5l9 0.5c0.11-43.4 0.49-53.69 1-52.5l0.86 2c0.28-3.1 0.29-4.9 0.21-6-0.08-1.1 0.53-2.9 1.36-4 1.49-1.98 1.51-1.97 1.54 0.25 0.02 1.24-0.42 2.02-0.97 1.75-0.55-0.28-1 0.17-1 1 0 0.83 0.67 1.72 1.5 2 1.26 0.42 1.5-0.94 1.5-8.5 0-6.9-0.29-8.84-1.25-8.31-1 0.56-1 0.36 0-1 0.86-1.16 0.95-2.24 0.28-3.44-0.54-0.96-0.65-2.08-0.25-2.48 0.39-0.4 0.16-1.41-0.53-2.25-1-1.22-0.99-2.06 0.08-4.27 0.97-2.02 1.04-3.22 0.25-4.53-0.8-1.32-0.75-1.96 0.19-2.5 0.93-0.53 1.2-3.61 1-11.57-0.15-5.96-0.61-11.03-1.02-11.25-0.41-0.22-0.75-1.07-0.75-1.9 0-0.83-0.67-2.17-1.5-3-0.83-0.83-1.5-1.95-1.5-2.5 0-0.55 0.79-0.98 1.75-0.96 1.41 0.04 1.51-0.21 0.51-1.25-0.69-0.71-0.95-1.63-0.59-2.04 0.37-0.41 0.14-0.75-0.5-0.75-0.65 0-1.4-1.46-1.69-3.25-0.36-2.3-1.31-3.61-3.25-4.49-1.5-0.68-4.31-1.42-6.23-1.65-1.92-0.23-4.47 0.1-5.67 0.74zm185.67 14.65c0 3.9-0.08 3.99-3.25 3.75-2.67-0.21-3.25 0.11-3.25 1.75 0 1.1-0.32 2.22-0.7 2.5-0.39 0.27-0.78 3.2-0.86 6.5-0.09 3.3-0.45 5.39-0.8 4.65-0.48-1.02-1.31-0.71-3.39 1.25-1.51 1.43-2.74 2.94-2.72 3.35 0.02 0.41 0.58 1.53 1.25 2.49 0.67 0.95 1.44 1.55 1.72 1.33 0.27-0.22 0.46 0.8 0.41 2.26-0.06 1.47-0.2 2.89-0.33 3.17-0.12 0.27-0.42 1.51-0.65 2.75-0.24 1.24 0.24 2.92 1.07 3.75 0.83 0.83 1.95 1.27 2.5 1 0.55-0.28 1.22 0.51 1.49 1.75 0.26 1.24 0.49 4.95 0.49 8.25 0 3.3 0.5 8.7 1.11 12 0.61 3.3 1.17 11.98 1.26 19.29 0.08 7.52 0.58 13.59 1.15 14 0.55 0.39 1.56 1.72 2.25 2.96 0.69 1.24 1.25 5.4 1.25 9.25 0 6.72 0.13 7.1 3.25 9.47 1.79 1.36 3.81 2.49 4.5 2.5 0.69 0.02 1.25 0.7 1.25 1.53 0 0.84 1.22 1.74 2.75 2.05 1.51 0.3 3.54 0.75 4.5 1 1.64 0.42 1.77-2.18 2.02-42.8 0.15-23.79 0.6-44.26 1-45.5 0.41-1.27 0.29-2.47-0.27-2.75-0.55-0.28-1-2.08-1-4 0-3.11 0.33-3.56 3-4 2.17-0.36 3-1.06 3-2.5 0-1.1-0.45-1.78-1-1.5-0.55 0.27-1.23-0.4-1.5-1.5-0.28-1.1-0.95-2-1.5-2-0.55 0-1.34-1.8-1.75-4-0.71-3.8-0.95-4.02-5-4.5-3.42-0.4-4.25-0.89-4.25-2.5 0-1.24-0.66-2-1.75-1.99-1.23 0.01-2.12-1.34-3-4.5-0.77-2.79-1.82-4.51-2.75-4.51-1.08 0-1.5 1.11-1.5 4zm-111.5 18.46c-2.2 0.82-4.67 2.32-5.5 3.32-0.83 1-3.27 3.15-5.42 4.77-2.16 1.62-4.3 4.19-4.75 5.7-0.46 1.51-1.73 3.21-2.84 3.78-1.1 0.57-2.68 2.37-3.5 4-0.82 1.63-1.6 5.67-1.74 8.97-0.18 4.33-0.6 5.86-1.5 5.5-0.7-0.28-1.52 0.49-1.87 1.75-0.34 1.24-0.34 2.81 0 3.5 0.34 0.69 0.21 1.14-0.28 1-0.49-0.14-0.94 0.09-1 0.5-0.05 0.41-0.1 1.2-0.1 1.75 0 0.55 0.56 0.67 1.25 0.26q1.24-0.73 0.5 0.5c-0.41 0.68-1.09 1.06-1.5 0.84-0.41-0.22-0.75 1.77-0.75 4.41 0 2.65 0.4 4.74 0.89 4.65 0.49-0.09 0.94 2.89 1 6.62 0.08 4.86 0.54 7.05 1.61 7.72 1.03 0.64 1.61 3.07 1.85 7.72 0.32 6.01 0.72 7.15 3.5 10.05 1.73 1.8 3.71 3.26 4.4 3.25 0.69-0.01 1.25 0.54 1.25 1.23 0 0.69 1.91 3.27 4.25 5.75l4.25 4.5 0.5-13.5c6.07 1.29 7.03 1.16 7.02 0.25-0.01-0.69 1.22-1.53 2.73-1.87 1.51-0.35 2.19-0.8 1.5-1-0.69-0.21-1.25-1.05-1.25-1.88 0-0.83 0.45-1.28 1-1 0.55 0.27 1 0.27 1 0 0-0.28-0.67-1.17-1.5-2-1.33-1.33-1.53-1.25-1.75 0.72-0.24 2.09-0.44 2.02-3.53-1.25-1.87-1.97-3.06-2.71-2.75-1.72 0.29 0.96 0.08 1.97-0.47 2.25-0.55 0.27-1.19-0.51-1.41-1.75-0.23-1.24-0.46-11.7-0.51-23.25-0.06-12.38 0.31-21.62 0.9-22.5 0.54-0.83 1-1.16 1-0.75 0.01 0.41 2.16-0.75 4.77-2.58 2.61-1.82 6.77-4.47 9.25-5.87 2.47-1.41 5.96-2.84 7.75-3.18 1.79-0.34 3.25-1.07 3.25-1.62 0-0.55-0.67-2.35-1.5-4-0.83-1.65-1.84-3.01-2.25-3.02-0.41-0.01-0.53-1.15-0.25-2.54 0.27-1.38 1.29-2.72 2.25-2.98 1.08-0.28 1.75-1.42 1.75-2.96 0-1.8-0.77-2.8-2.75-3.57-1.51-0.58-5.45-1.27-8.75-1.51-3.91-0.3-7.39 0.06-10 1.04zm17 23.48c1.65-0.41 3.56-0.78 4.25-0.84 0.69-0.05 3.39 0.35 6 0.91 2.61 0.56 6.33 2.27 8.25 3.81 1.92 1.55 4.97 5.7 6.77 9.24 2.94 5.78 3.27 7.31 3.26 14.94 0 4.84-0.65 10.44-1.5 13-0.82 2.47-3.19 6.49-5.26 8.92-2.07 2.44-5.57 5.24-7.77 6.23-2.2 0.99-6.02 1.81-8.5 1.82-2.48 0.01-6.19-0.43-8.25-0.98-2.35-0.62-5.46-2.76-8.32-5.74-2.7-2.81-5.36-6.89-6.5-10-1.19-3.24-1.93-7.84-1.94-12-0.01-3.71 0.65-9 1.46-11.75 0.81-2.78 3.15-6.95 5.26-9.39 2.08-2.41 5.14-5.07 6.79-5.91 1.65-0.85 4.35-1.86 6-2.26zm190-24.64c-3.6 0.76-5.07 1.57-5.25 2.88-0.14 1-0.92 1.82-1.75 1.82-0.83 0-1.7 0.56-1.94 1.25-0.24 0.69 0.33 2.3 1.25 3.58 1.17 1.61 1.98 2 2.64 1.25 0.52-0.59 2.66-1.08 4.75-1.08 2.09 0 3.8-0.45 3.8-1 0-0.64 4.8-0.84 13.25-0.57 7.29 0.24 11.9 0.1 10.25-0.31-1.65-0.4-3.56-1.05-4.25-1.43-0.69-0.38-1.25-1.59-1.25-2.69 0-1.1-0.45-2.23-1-2.5-0.55-0.28-2.8-0.5-5-0.5-2.2 0-4-0.45-4-1 0-0.55-1.46-0.95-3.25-0.88-1.79 0.06-5.5 0.59-8.25 1.18zm77-36.02c-1.9 1.3-1.94 2.95-1.72 66.53 0.19 55.63 0.44 65.63 1.72 68.19 1.27 2.54 1.74 2.81 3.08 1.75 0.88-0.69 2.68-3.61 4-6.5 1.33-2.89 2.76-5.26 3.17-5.28 0.41-0.01 1.31 1.11 2 2.5 0.69 1.39 1.7 2.53 2.25 2.53 0.55 0 1 0.45 1 1 0 0.55-0.45 0.77-1 0.5-0.55-0.28-1.01 0.06-1.02 0.75-0.01 0.69 0.56 1.88 1.25 2.65 0.99 1.09 1 1.25 0.02 0.75-0.89-0.46-1.25 0.37-1.25 2.85 0 2.67 0.36 3.38 1.5 3 1.25-0.42 1.53-3.42 1.69-17.75 0.1-9.49 0.21-24.92 0.25-34.29 0.05-14 0.35-17.47 1.69-19.5 0.9-1.35 1.91-4.15 2.25-6.21 0.44-2.67 0.26-3.74-0.63-3.73-0.91 0.01-1.05-0.99-0.49-3.75 0.42-2.07 1.44-5.12 2.27-6.77 0.83-1.65 1.51-3.9 1.5-5 0-1.16-1.27-2.73-3.02-3.75-1.65-0.96-3.03-2.54-3.05-3.5-0.02-0.96-0.29-5.58-0.59-10.25-0.31-4.67-1.02-9.63-1.58-11-0.57-1.38-1.2-1.94-1.41-1.25-0.21 0.69-1.28 1.25-2.38 1.25-1.7 0-2-0.67-2-4.5 0-2.48-0.79-6.08-1.75-8.02-0.96-1.94-2.09-3.51-2.5-3.5-0.41 0.01-1.32-0.21-2.03-0.5-0.7-0.29-2.15 0.07-3.22 0.8zm49.5 36.88c-1.92 0.54-4.48 1.96-5.67 3.16-1.69 1.69-1.92 2.46-1 3.45 0.64 0.69 1.84 1.24 2.67 1.22 0.83-0.02 2.63 1.09 4 2.47l2.5 2.5-5.5 2.04c6.53 7.36 9.72 9.95 11.3 10.5 2.03 0.71 3.3 2.17 4.35 5 0.82 2.2 2.19 6.25 3.05 9 0.85 2.75 2.38 6.58 3.39 8.5 1.6 3.04 1.85 6.04 1.88 22.75l0.03 19.25c3.49-0.06 5.05-0.85 5.72-1.79 0.67-0.94 1.23-3.62 1.25-5.96 0.02-2.34 0.37-4.43 0.78-4.65 0.41-0.22 0.86-10.57 1-23 0.16-14.57-0.11-22.6-0.75-22.6-0.55 0-1-1.13-1-2.5 0-1.38-0.48-3.74-1.06-5.25-0.58-1.51-2.16-4.33-3.51-6.25-1.35-1.92-2.56-4.51-2.69-5.75-0.13-1.24-0.58-2.25-0.99-2.25-0.41 0-1.42-1.35-2.25-3-0.83-1.65-1.39-3.33-1.25-3.74 0.14-0.41-1.33-1.51-3.25-2.45-1.92-0.94-4.85-1.69-6.5-1.67-1.65 0.02-4.58 0.48-6.5 1.02zm-195.04 3.59c-0.04 3.39 0.1 3.61 1.54 2.25 0.87-0.83 1.57-2.51 1.54-3.75-0.02-1.31-0.66-2.25-1.54-2.25-1.06 0-1.51 1.1-1.54 3.75zm-80.96-1.75c0 0.55-0.34 0.91-0.75 0.8-0.41-0.11-1.76 0.12-3 0.5-1.24 0.39-2.02 1.15-1.75 1.7 0.27 0.55-0.17 1.22-1 1.5-0.83 0.27-1.81 1.96-2.19 3.75-0.37 1.79-1.78 4.37-3.13 5.75-1.34 1.37-3.14 4.08-4 6-0.85 1.92-1.47 3.84-1.37 4.25 0.11 0.41-0.37 0.74-1.06 0.72-0.81-0.02-0.65 0.59 0.47 1.75 0.95 0.98 1.74 2.12 1.75 2.53 0.02 0.41 0.93 2.77 2.03 5.25 1.1 2.47 1.66 5.06 1.25 5.74-0.45 0.74-0.34 0.96 0.25 0.55 0.56-0.38 1.54 0.93 2.23 3.01 0.68 2.04 1.26 7.53 1.3 12.2 0.04 6.53-0.31 8.85-1.53 10-0.87 0.83-1.56 1.95-1.53 2.5 0.03 0.55 0.5 0.33 1.03-0.5 0.8-1.24 0.96-1.15 0.91 0.5-0.03 1.1-0.41 2.9-0.85 4-0.5 1.23-0.28 3.05 0.57 4.75 0.75 1.51 1.37 4.77 1.37 7.25 0 2.47 0.34 4.49 0.75 4.47 0.41-0.01 1.31 1.11 2 2.5 1.09 2.21 1.5 2.37 3.19 1.28 1.06-0.69 1.73-1.59 1.5-2-0.24-0.41 0.01-0.98 0.56-1.25 0.62-0.31 1.03 2.27 1.08 6.75 0.04 3.99 0.27 6.69 0.5 6 0.32-0.96 1.17-1 3.67-0.15 1.79 0.61 3.57 0.72 3.95 0.25 0.39-0.47 0.73-17.39 0.75-37.6 0.03-20.21 0.39-36.56 0.8-36.32 0.41 0.24 1.09-1.22 1.5-3.25 0.41-2.02 1.08-7.33 1.5-11.8 0.55-5.95 0.42-8.55-0.5-9.75-0.69-0.9-1.7-1.41-2.25-1.13-0.55 0.27-1 0.05-1-0.5 0-0.55-0.79-0.72-1.75-0.38-0.96 0.34-2.76 0.34-4 0-1.24-0.34-2.08-1.07-1.87-1.62 0.21-0.55-0.02-1-0.5-1-0.48 0-0.88 0.45-0.88 1zm307.66 43.76c-0.24 0.41-0.48 7.38-0.55 15.49-0.08 11.44 0.17 14.64 1.14 14.24 0.92-0.38 1.17 0.75 0.95 4.25-0.18 2.67 0.04 4.2 0.5 3.49 0.44-0.7 1.7-1.41 2.8-1.59 1.87-0.31 2.02-1.2 2.24-13.73 0.13-7.38-0.18-14.76-0.7-16.41-0.51-1.65-2.06-3.78-3.44-4.74-1.39-0.96-2.71-1.41-2.94-1zm-560.16-216.17c-2.2 0.21-9.85 0.87-17 1.47-7.15 0.59-19.08 1.97-26.5 3.07-7.43 1.1-18.9 3.28-25.5 4.84-6.6 1.56-15.6 4.23-20 5.92-4.4 1.7-9.46 4-11.25 5.1-1.79 1.11-3.25 2.68-3.25 3.51 0 0.82 1.24 2.36 2.75 3.42 1.51 1.06 6.91 3.53 12 5.5 5.41 2.09 16.41 5.01 26.5 7.03 9.49 1.89 21.07 3.93 25.75 4.52 4.67 0.6 17.5 1.75 28.5 2.57 11 0.81 30.12 1.49 42.5 1.51 12.37 0.03 29.25-0.48 37.5-1.12 8.25-0.63 19.72-1.78 25.5-2.54 5.77-0.76 12.07-1.6 14-1.86 1.92-0.26 4.17-0.53 5-0.59 0.82-0.07 4.87-0.81 9-1.65 4.12-0.84 9.3-1.89 11.5-2.33 2.2-0.44 6.92-1.79 10.5-2.99 3.57-1.21 9.37-3.61 12.87-5.34 3.5-1.72 6.77-3.58 7.25-4.13 0.49-0.55 0.55-1.86 0.13-2.91-0.43-1.1-4.34-3.55-9.25-5.81-4.68-2.14-9.06-3.65-9.75-3.34-0.69 0.31-1.06 0.22-0.82-0.19 0.23-0.41-2.58-1.59-6.25-2.62-3.68-1.02-9.61-2.47-13.18-3.22-3.58-0.74-6.73-1.14-7-0.89-0.28 0.26-0.95 0.06-1.5-0.43-0.55-0.49-6.85-1.6-14-2.47-7.15-0.87-17.28-2.07-22.5-2.67-5.23-0.6-25.25-1.24-44.5-1.42-19.25-0.18-36.8-0.15-39 0.06zm128.5 265.41c0 3.11 0.47 5.16 1.25 5.42 1 0.34 1 0.44 0 0.5-0.69 0.04-1.25 0.42-1.25 0.83 0 0.41 0.78 0.82 1.75 0.9 1.43 0.12 1.65-0.42 1.18-3-0.31-1.73-0.08-3.9 0.5-4.82 0.8-1.24 0.69-2.07-0.43-3.29-0.83-0.9-1.84-1.61-2.25-1.58-0.41 0.02-0.75 2.29-0.75 5.04zm-116.16 1.1c-0.19 2.8 0 5.27 0.41 5.5 0.41 0.22 0.95 0.29 1.19 0.15 0.24-0.14 0.57-1.89 0.75-3.9 0.17-2.01 0.64-4.04 1.04-4.5 0.4-0.47 0.51-1.19 0.25-1.6-0.27-0.41-1.11-0.75-1.89-0.75-0.98 0-1.51 1.54-1.75 5.1z"/>
		<path id="Path 0 copy" fill-rule="evenodd" class="s1" d="m688 34.62c-1.92 0.25-7.33 1.15-12 2-4.67 0.85-12.77 2.91-18 4.57-5.23 1.67-14 5.28-19.5 8.03-5.5 2.76-14.05 7.76-19 11.13-4.95 3.36-13.76 10.85-19.58 16.63-5.82 5.79-13.1 13.9-16.18 18.02-3.08 4.13-8.08 12.22-11.12 18l-5.52 10.5c-30.66 0.13-37.68 0.62-43.1 1.85-4.13 0.93-10.42 2.64-14 3.81-3.57 1.16-10.55 3.99-15.5 6.29-4.95 2.29-12.6 6.59-17 9.55-4.4 2.96-12.32 9.68-17.6 14.94-5.28 5.26-12 13.16-14.94 17.56-2.93 4.4-7 11.38-9.02 15.5-2.03 4.13-5.13 12-6.89 17.5-1.75 5.5-3.83 14.28-4.61 19.5-0.79 5.22-1.43 13.66-1.43 18.75-0.01 5.09 0.89 14.43 1.99 20.75 1.1 6.32 3.62 15.89 5.6 21.25 1.98 5.36 5.53 13.35 7.9 17.75 2.36 4.4 7 11.6 10.3 16 3.3 4.4 9.47 11.15 13.72 15 4.24 3.85 11.14 9.41 15.34 12.35 4.2 2.94 11.46 7.15 16.14 9.35 4.68 2.2 12.55 5.32 17.5 6.93 4.95 1.62 12.83 3.38 17.5 3.92 4.67 0.54 8.73 1.24 9 1.55 0.27 0.31 0.5 27.87 0.5 61.24v60.68c4.65 10.41 6.34 13.44 6.75 13.45 0.41 0.02 3.11 1.9 6 4.19 2.89 2.28 8.4 5.61 12.25 7.39 3.85 1.78 11.27 4.64 16.5 6.36 5.23 1.71 14.45 4.23 20.5 5.59 6.05 1.35 15.5 3.13 21 3.94 5.5 0.81 16.52 2.28 24.5 3.25 11.9 1.45 22.49 1.77 59 1.76 36.41-0.01 47.23-0.33 59.5-1.79 8.25-0.99 20.17-2.68 26.5-3.78 6.33-1.09 16.9-3.3 23.5-4.89 6.6-1.6 15.6-4.28 20-5.96 4.4-1.68 11.31-4.96 15.35-7.29 4.05-2.33 9.5-6.49 12.11-9.24 3.36-3.53 5.25-6.62 6.41-10.5 1.45-4.84 1.65-12.61 1.63-65l-0.02-59.5c13.97-1.94 22.18-3.83 27.27-5.46 5.09-1.62 13.98-5.34 19.75-8.27 5.77-2.92 14.1-8.05 18.5-11.38 4.4-3.34 11.53-9.86 15.84-14.48 4.31-4.63 10.38-12.23 13.49-16.91 3.1-4.68 7.38-12.55 9.5-17.5 2.12-4.95 4.92-13.05 6.21-18 1.3-4.95 2.89-13.73 3.55-19.5 0.69-6.14 0.92-14.86 0.54-21-0.35-5.78-1.54-14.55-2.64-19.5-1.1-4.95-2.96-11.93-4.14-15.5-1.17-3.57-3.71-9.65-5.63-13.5-1.92-3.85-5.62-10.15-8.22-14-2.6-3.85-7.82-9.93-11.61-13.51-3.79-3.58-10.27-8.56-14.39-11.05-4.13-2.5-9.98-5.53-13-6.73-3.02-1.2-8.65-2.93-12.5-3.84-4.52-1.08-11.25-1.66-19-1.66-8.42 0.01-14.69 0.62-21 2.04-4.95 1.12-12.83 3.53-17.5 5.36-4.67 1.83-13 5.63-18.5 8.44-5.5 2.8-13.93 7.77-18.73 11.03-4.94 3.35-8.41 6.35-8.01 6.92 0.43 0.6 0.22 0.7-0.52 0.25-0.74-0.45-2.97 0.55-5.49 2.46-2.34 1.76-9.88 8.23-16.75 14.37-6.88 6.13-17.67 16.52-24 23.07-6.33 6.55-16.3 17.52-22.18 24.38-5.87 6.86-15.54 18.8-21.5 26.55-5.95 7.74-14.2 18.65-18.32 24.24-4.13 5.59-7.95 10.18-8.5 10.18-0.55 0.01-8.88-7.98-18.5-17.75-9.63-9.77-18.74-18.77-20.25-20.01-1.51-1.23-3.09-2.24-3.5-2.25-0.41-0.01-2.33-1.65-4.25-3.64-1.92-2-5.3-4.46-7.5-5.47-2.2-1.01-5.8-1.84-8-1.84-2.2 0-5.8 0.81-8 1.8-2.2 0.98-5.97 3.56-8.37 5.72-2.41 2.17-5.22 5.63-6.25 7.69-1.03 2.06-1.89 5.89-1.91 8.5-0.02 3.4 0.65 5.74 2.36 8.25 1.32 1.93 6.34 7.55 11.16 12.5 4.83 4.95 11.53 12.33 14.89 16.39 3.37 4.07 9.73 11.72 14.15 17 4.41 5.29 11.8 14.79 16.43 21.11 4.62 6.32 9.56 12.78 10.97 14.34 1.42 1.56 4.26 3.7 6.32 4.75 2.06 1.05 5.89 2.38 8.5 2.95 3.26 0.71 6.32 0.72 9.75 0.01 2.93-0.6 7.28-2.63 10.5-4.9 5.04-3.54 6.16-5.12 13.39-18.76 4.34-8.19 10.59-19.62 13.9-25.39 3.31-5.77 9.83-16.8 14.49-24.5 4.67-7.7 9.89-16.02 11.6-18.5 1.72-2.48 3.35-4.73 3.62-5 0.27-0.27 2.75-3.86 5.5-7.96 2.75-4.1 7.86-11.3 11.36-16 3.5-4.7 10.31-13.26 15.13-19.04 4.82-5.77 13.89-15.48 20.14-21.57 6.25-6.09 15.64-14.26 20.87-18.14 5.23-3.89 14.67-9.78 21-13.08 6.33-3.31 13.98-6.7 17-7.55 3.02-0.84 8.2-1.84 11.5-2.2 3.38-0.38 9.49-0.14 14 0.55 4.64 0.7 10.52 2.43 14 4.12 3.3 1.6 8.59 4.93 11.75 7.39 3.16 2.46 7.61 6.84 9.88 9.73 2.27 2.89 5.16 7.5 6.42 10.25 1.27 2.75 3.29 7.48 4.49 10.5 1.21 3.03 2.36 6.18 2.57 7 0.2 0.83 1.07 3.98 1.92 7 0.86 3.03 1.88 9.33 2.27 14 0.38 4.68 0.41 12.33 0.06 17-0.35 4.68-0.94 9.85-1.3 11.5-0.36 1.65-1.33 5.25-2.16 8-0.82 2.75-2.03 5.58-2.7 6.29-0.66 0.72-0.86 1.28-0.45 1.25 0.41-0.02 0.23 1.42-0.41 3.21-0.64 1.79-1.43 3.48-1.75 3.75-0.33 0.27-1.93 3.2-3.57 6.5-1.64 3.3-5 8.7-7.48 12-2.47 3.3-6.98 8.42-10.02 11.38-3.04 2.95-8.9 7.65-13.02 10.43-4.13 2.79-10.2 6.28-13.5 7.78-3.3 1.49-10.5 3.97-16 5.52-8.94 2.52-11.59 2.82-25 2.82-12.53 0-16.48-0.39-24-2.35-4.95-1.3-13.27-4.31-18.5-6.69-5.23-2.39-10.85-4.35-12.5-4.35-1.65-0.01-3.56 0.32-4.24 0.73-0.68 0.4-1.47 2.19-1.75 3.98-0.41 2.6 0.14 4.09 2.74 7.42 1.79 2.3 6.25 6.46 9.91 9.25 3.66 2.8 9.96 6.73 14 8.74 4.04 2.02 8.46 3.97 9.84 4.36 1.37 0.38 3.51 1.32 4.75 2.08l2.25 1.4c0.03 76.89-0.25 86.76-1.23 87.66-0.97 0.89-3.19 0.48-9.52-1.75-4.54-1.6-9.04-2.9-10-2.89-0.96 0.01-2.2-0.4-2.75-0.9-0.55-0.5-4.15-1.61-8-2.47-3.85-0.86-12.63-2.51-19.5-3.66-6.88-1.15-13.85-2.29-15.5-2.52-1.65-0.24-5.02-0.66-7.5-0.94-2.48-0.28-13.5-1.18-24.5-2-11-0.81-29.56-1.5-41.25-1.51-11.69-0.01-21.7 0.21-22.25 0.48-0.55 0.27-1.11-0.02-1.25-0.64-0.18-0.83-0.81-0.86-2.25-0.11-1.1 0.57-11 1.8-22 2.73-11 0.92-24.27 2.32-29.5 3.1-5.23 0.79-14.9 2.59-21.5 4.01-6.6 1.42-17.96 4.57-25.25 7-7.29 2.42-13.7 4.41-14.25 4.41-0.65 0-1-15.83-1-45.5v-45.5c3.49-1.48 7.87-3.27 12-4.93 4.12-1.66 10.29-4.72 13.71-6.8 3.41-2.07 8.27-5.57 10.8-7.77 2.53-2.2 5.46-5.35 6.51-7 1.06-1.65 1.94-4.12 1.97-5.5 0.02-1.37-0.53-3.07-1.22-3.77-0.7-0.69-2.51-1.26-4.02-1.25-1.51 0.01-6.46 1.89-11 4.16-4.54 2.28-12.52 5.3-17.75 6.71-8.4 2.26-11.47 2.56-26.5 2.6-13.6 0.03-18.4-0.34-24-1.85-3.85-1.04-10.6-3.41-15-5.28-4.4-1.86-10.25-4.81-13-6.55-2.75-1.74-8.38-5.95-12.5-9.35-4.13-3.39-8.79-7.69-10.37-9.55-1.58-1.85-4.93-6.52-7.44-10.37-2.51-3.85-6.04-10.15-7.84-14-1.8-3.85-4.48-11.05-5.96-16-2.35-7.88-2.7-10.8-2.77-23.5-0.06-10.88 0.39-16.5 1.8-22.5 1.03-4.4 3.39-11.82 5.24-16.5 1.86-4.67 5.28-11.65 7.61-15.5 2.33-3.85 7.38-10.32 11.23-14.38 3.85-4.06 9.59-9.35 12.75-11.75 3.16-2.4 6.2-4.37 6.75-4.37 0.55 0 0.99-0.34 0.97-0.75-0.02-0.41 3.47-2.43 7.75-4.47 4.28-2.05 10.48-4.65 13.78-5.79 3.3-1.13 9.83-2.72 14.5-3.54 4.67-0.81 12.33-1.46 17-1.44 4.67 0.01 9 0.35 9.6 0.76 0.65 0.42 1.39 5.97 1.78 13.23 0.38 6.88 1.52 15.88 2.54 20 1.02 4.13 2.81 9.64 3.97 12.25 1.16 2.61 3.12 5.43 4.36 6.26 1.24 0.83 2.92 1.52 3.75 1.53 0.83 0.01 2.23-0.78 3.13-1.76 1.28-1.41 1.74-4.91 2.2-16.78 0.36-9.37 1.37-18.75 2.69-25 1.17-5.5 3.03-12.7 4.14-16 1.11-3.3 3.71-9.37 5.78-13.5 2.07-4.12 5.86-10.76 8.41-14.75 2.56-3.99 8.59-11.35 13.4-16.36 4.81-5.01 12.12-11.66 16.25-14.76 4.12-3.11 11.1-7.52 15.5-9.79 4.4-2.28 11.83-5.48 16.5-7.12 4.67-1.64 12.1-3.81 16.5-4.83 6.04-1.4 12.05-1.85 24.5-1.87 12.27-0.01 18.68 0.45 25 1.81 4.67 1.01 12.55 3.4 17.5 5.31 4.95 1.92 11.59 4.8 14.75 6.42 3.16 1.62 6.2 2.72 6.75 2.44 0.55-0.27 0.89-0.09 0.75 0.41-0.14 0.5 2.9 3.14 6.75 5.86 3.85 2.72 10.98 8.95 15.84 13.84 4.86 4.89 11.68 13.17 15.16 18.39 3.48 5.23 7.59 12.2 9.15 15.5 1.55 3.3 2.94 6.11 3.09 6.25 0.14 0.14 2.17-0.79 4.51-2.06 2.34-1.27 7.4-3.61 11.25-5.19 3.85-1.59 7.11-3.02 7.25-3.19 0.14-0.17-1.64-4.25-3.94-9.06-2.31-4.81-6.64-12.35-9.62-16.75-2.99-4.4-7.49-10.47-10-13.5-2.51-3.02-7.52-8.32-11.13-11.77-3.61-3.44-10.83-9.37-16.06-13.17-5.23-3.8-14-9.14-19.5-11.87-5.5-2.73-13.38-6.18-17.5-7.67-4.13-1.48-12.23-3.8-18-5.15-8.37-1.95-13.94-2.52-27.5-2.82-9.35-0.21-18.58-0.17-20.5 0.07zm-122 562.88c-1.92 0.84-4.08 2.31-4.78 3.27-0.71 0.95-1.72 2.74-2.25 3.98-0.59 1.37-0.98 27.63-0.99 67-0.02 60.39 0.1 64.91 1.75 67.13 0.97 1.31 2.89 3.24 4.27 4.29 1.63 1.24 4.25 1.94 7.5 2.01 3.26 0.07 6.12-0.56 8.21-1.79 1.77-1.04 3.99-3.24 4.94-4.89 1.22-2.12 1.84-5.93 2.11-13l0.38-10c10.45-10.58 13.16-12.63 13.71-12 0.48 0.55 6.9 9.3 14.26 19.44 7.37 10.14 14.74 19.25 16.39 20.24 1.88 1.14 4.96 1.81 8.25 1.82 4.53 0 5.74-0.45 8.82-3.25 2.23-2.02 3.95-4.76 4.56-7.25 0.62-2.49 0.64-4.94 0.06-6.5-0.5-1.38-5.17-8.13-10.37-15-5.2-6.88-12.23-16.21-15.63-20.75l-6.19-8.25c16.66-16.14 22.74-21.76 24.25-22.91 1.51-1.15 3.42-3.44 4.25-5.09 0.83-1.65 1.5-4.69 1.5-6.75-0.01-2.06-0.82-5.1-1.81-6.75-1-1.65-3.47-3.79-5.5-4.75-2.03-0.96-4.82-1.75-6.19-1.75-1.38 0-3.96 0.6-5.75 1.34-1.85 0.76-12.08 10.27-23.75 22.08l-20.5 20.73c-0.93-68.2-1.24-74.09-2.62-76.65-0.89-1.65-2.8-3.79-4.25-4.75-1.45-0.96-4.54-1.98-6.88-2.26-2.68-0.33-5.55 0.05-7.75 1.01zm-345.5 4.96c-3.3 0.76-8.48 2.35-11.5 3.55-3.03 1.2-8.43 3.88-12 5.97-3.58 2.09-9.12 6.44-12.33 9.66-3.21 3.22-7.81 9.01-10.23 12.86-2.43 3.85-5.52 10.15-6.88 14-1.36 3.85-2.88 10.83-3.39 15.5-0.5 4.67-0.72 11.42-0.48 15 0.23 3.58 1.3 10.1 2.37 14.5 1.06 4.4 3.4 10.88 5.19 14.39 1.79 3.51 5.75 9.36 8.8 13 3.04 3.64 8.44 8.71 12 11.29 3.55 2.57 8.92 5.82 11.95 7.22 3.02 1.39 9.1 3.46 13.5 4.58 5.73 1.46 11.12 2.03 19 2.01 6.05-0.01 13.92-0.64 17.5-1.38 3.57-0.75 10.1-3.02 14.5-5.05 4.4-2.02 10.44-5.56 13.42-7.87 2.98-2.3 6.24-5.54 7.24-7.19 1.01-1.65 1.83-4.69 1.84-6.75 0-2.06-0.79-5.39-1.75-7.39-1.14-2.37-3.15-4.33-5.75-5.62-2.91-1.44-5.09-1.82-8-1.38-2.53 0.38-6.76 2.54-11.5 5.86-4.13 2.89-9.75 6.03-12.5 6.98-3.19 1.11-8.08 1.74-13.5 1.75-5 0.02-10.56-0.62-13.5-1.55-2.75-0.86-7.48-3.26-10.5-5.33-3.03-2.06-7.33-5.96-9.56-8.66-2.23-2.7-5.13-7.61-6.45-10.91-2.07-5.17-2.41-7.66-2.41-18 0-10.35 0.33-12.82 2.41-18 1.33-3.3 3.78-7.77 5.46-9.94 1.68-2.16 5.3-5.79 8.05-8.05 2.75-2.27 7.7-5.16 11-6.42 4.27-1.64 8.3-2.34 14-2.43 4.94-0.08 10.11 0.51 13.5 1.53 3.02 0.92 8.99 3.95 13.25 6.74 6.41 4.19 8.53 5.07 12.25 5.07 2.48 0 5.85-0.67 7.5-1.5 1.65-0.83 3.9-2.96 5-4.75 1.17-1.9 1.99-5.01 2-7.5 0-2.34-0.61-5.49-1.36-7-0.75-1.51-3.11-4.15-5.25-5.87-2.14-1.72-6.59-4.48-9.89-6.14-3.3-1.65-9.15-4.02-13-5.25-5.46-1.74-9.97-2.31-20.5-2.57-9.05-0.23-15.48 0.11-19.5 1.04zm129 33.17c-1.65 0.26-5.25 1.18-8 2.06-2.75 0.87-7.7 2.94-11 4.59-3.53 1.77-8.72 5.73-12.59 9.61q-6.59 6.61-9.63 13.11c-1.68 3.58-3.63 8.98-4.35 12-0.72 3.02-1.24 9.77-1.17 15 0.11 7.29 0.73 11.24 2.69 17 1.41 4.12 4.13 9.86 6.05 12.75 1.93 2.89 5.64 7.28 8.25 9.76 2.61 2.48 7.67 6.04 11.25 7.92 3.57 1.87 9.2 4.1 12.5 4.97 3.33 0.87 10.23 1.58 15.5 1.6 6.93 0.03 11.39-0.53 16.5-2.09 3.85-1.17 8.24-2.76 9.75-3.52 1.76-0.89 2.48-1.84 2.01-2.64q-0.73-1.24 0.5-0.5c0.7 0.42 2.66-0.19 4.49-1.4 1.79-1.19 5.65-4.67 8.58-7.75 2.93-3.08 6.59-8.3 8.14-11.6 1.55-3.3 3.59-8.7 4.55-12 1.38-4.75 1.63-8.3 1.2-17-0.31-6.27-1.23-12.83-2.13-15.25-0.88-2.34-2.78-6.61-4.24-9.5-1.46-2.89-5.18-7.75-8.25-10.82-3.08-3.06-8.3-7.13-11.6-9.04-3.3-1.91-8.48-4.27-11.5-5.23-3.06-0.98-9.72-1.92-15-2.13-5.23-0.2-10.85-0.16-12.5 0.1zm1 26.4c1.65-0.54 5.92-0.83 9.5-0.65 3.97 0.19 8.06 1.11 10.5 2.34 2.2 1.11 5.46 3.66 7.25 5.65 1.79 2 4.22 5.54 5.42 7.88 1.45 2.84 2.3 6.73 2.59 11.75 0.34 5.9 0 8.67-1.63 13-1.21 3.23-3.83 7.31-6.35 9.89-2.35 2.41-6.08 5.21-8.28 6.22-2.52 1.17-6.4 1.87-10.5 1.9-5.24 0.04-7.56-0.5-12-2.78-3.6-1.86-6.78-4.54-9.21-7.78-2.04-2.72-4.26-6.97-4.94-9.45-0.68-2.48-1.2-7.2-1.16-10.5 0.03-3.3 0.81-7.8 1.73-10 0.92-2.2 2.74-5.58 4.05-7.5 1.3-1.92 4.1-4.74 6.2-6.25 2.11-1.51 5.18-3.18 6.83-3.72zm122.5-26.08c-2.48 0.47-6.98 1.78-10 2.92-3.02 1.14-7.64 3.44-10.25 5.1-2.61 1.67-4.52 3.48-4.25 4.03 0.27 0.55-0.06 0.75-0.75 0.43-0.7-0.32-3.38 1.76-6.12 4.75-2.68 2.93-6.11 7.8-7.62 10.82-1.51 3.02-3.49 8.09-4.38 11.25-0.98 3.47-1.62 9.42-1.61 15 0.01 5.18 0.71 11.89 1.6 15.25 0.87 3.3 2.95 8.7 4.62 12 1.79 3.52 5.78 8.7 9.65 12.53 3.64 3.59 9.31 7.95 12.61 9.68 3.3 1.74 8.7 3.87 12 4.73 3.48 0.91 9.99 1.56 15.5 1.54 5.23-0.02 11.52-0.5 14-1.08 2.48-0.57 7.87-2.63 12-4.56 5.14-2.41 9.55-5.5 14-9.83 4.5-4.37 7.62-8.58 10.14-13.66 2.01-4.04 4.22-9.83 4.92-12.85 0.7-3.02 1.27-9.1 1.26-13.5-0.01-4.4-0.59-10.48-1.29-13.5-0.69-3.02-2.52-8.2-4.04-11.5-1.53-3.3-5.01-8.48-7.72-11.5-2.72-3.02-7.6-7.28-10.86-9.45-3.25-2.17-9.06-5.03-12.91-6.34-4.87-1.66-9.89-2.5-16.5-2.75-5.23-0.2-11.52 0.02-14 0.49zm0.5 27.07c3.35-1.71 5.22-1.96 11.5-1.52 4.12 0.29 8.48 0.64 9.67 0.77 1.19 0.12 1.98 0.34 1.75 0.48-0.23 0.14 2.06 2.61 5.09 5.5 3.32 3.16 6.36 7.24 7.65 10.25 1.58 3.7 2.12 6.95 2.07 12.5-0.05 6.47-0.52 8.39-3.4 13.96-2.1 4.07-4.9 7.67-7.58 9.75-2.34 1.81-6.16 3.79-8.5 4.4-2.34 0.61-6.95 0.9-10.25 0.65-3.3-0.26-7.46-1.21-9.25-2.12-1.79-0.9-4.84-3.33-6.78-5.39-1.95-2.06-4.53-5.77-5.74-8.25-1.63-3.31-2.29-6.75-2.53-13-0.28-7.46-0.01-9.11 2.19-13.5 1.38-2.75 4.22-6.67 6.31-8.71 2.09-2.04 5.6-4.64 7.8-5.77zm474.56-457.02c-0.06 0.27-0.33 4.1-0.61 8.5-0.28 4.4-1.17 10.81-1.98 14.25-0.81 3.44-2.32 8.61-3.35 11.5-1.35 3.77-1.67 6.24-1.1 8.75 0.42 1.92 0.84 3.05 0.92 2.5 0.07-0.55 0.8 0.46 1.6 2.25 0.8 1.79 1.19 4.04 0.87 5-0.35 1.01-0.24 1.33 0.25 0.75 0.46-0.55 1.63-1.11 2.59-1.25 0.96-0.14 1.75 0.2 1.75 0.75 0 0.55-0.52 2.01-1.16 3.25-1.08 2.07-1.03 2.13 0.54 0.75 0.94-0.83 1.7-1.05 1.68-0.5-0.01 0.55-0.6 1.54-1.29 2.21-1.02 0.96-1.02 1.47-0.02 2.5 1 1.03 0.84 1.69-0.79 3.29-1.2 1.18-2.01 1.49-1.99 0.75 0.02-0.69-0.42-1.25-0.97-1.25-0.55 0-0.77 0.45-0.5 1 0.28 0.55-0.17 1.22-1 1.5-1.2 0.4-1.51-0.55-1.57-4.75l-0.07-5.25c-3.86 12.4-6.15 20.05-7.57 25-2 6.94-3.42 9.87-6.19 12.81-1.98 2.09-4.41 5.24-5.39 7-0.99 1.75-3.13 3.98-4.75 4.94-1.63 0.96-2.95 2.09-2.93 2.5 0.02 0.41-1.8 1.65-4.03 2.75-2.23 1.1-4.05 2.34-4.03 2.75 0.02 0.41-1.36 2.21-3.07 4-1.7 1.79-3.5 3.36-4 3.5-0.49 0.14-1.01 0.28-1.15 0.33-0.14 0.04-1.15 0.26-2.25 0.49-1.1 0.22-3.12 1.14-4.5 2.03-2.06 1.33-2.63 1.38-3.23 0.26-0.41-0.75-0.75-1.59-0.77-1.86-0.01-0.28-1.93-0.34-4.26-0.13-2.33 0.2-4.46 0.7-4.74 1.12-0.27 0.42-2.75 1.05-5.5 1.4-2.75 0.36-5.45 1.03-6 1.5-0.55 0.47-1.79 0.69-2.75 0.48-0.96-0.2-1.8 0.19-1.87 0.88-0.06 0.69-0.06 1.59 0 2 0.07 0.41-0.33 0.75-0.88 0.75-0.55 0-1.34 0.15-1.75 0.34-0.41 0.18-1.65 0.69-2.75 1.13-1.1 0.44-3.12 0.56-4.5 0.28-1.37-0.29-3.74-0.12-5.25 0.37-1.95 0.62-2.93 0.52-3.37-0.37-0.5-1-0.76-1-1.25 0-0.48 0.96-1.57 0.8-4.63-0.66-2.2-1.05-4.22-1.5-4.5-1-0.27 0.5-1.97 0.57-3.77 0.16-1.8-0.41-3.27-1.09-3.25-1.5 0.01-0.41-0.54-0.7-1.23-0.63-0.69 0.06-2.04 0.06-3 0-0.96-0.07-2.42-0.8-3.25-1.62-0.83-0.83-4.54-2.66-8.25-4.09-3.71-1.42-7.54-2.54-8.5-2.5-0.96 0.05-1.75-0.59-1.75-1.41 0-0.83-0.67-1.5-1.5-1.5-0.93 0-1.5 0.94-1.5 2.5 0 1.37-0.45 2.5-1 2.5-0.55 0-1.17-0.79-1.38-1.75-0.37-1.67-0.39-1.67-0.5 0-0.07 0.96-0.79 1.97-1.62 2.25-0.83 0.27-1.72 0.05-2-0.5-0.27-0.55 0.17-1 1-1 0.83 0 1.5-0.45 1.5-1 0-0.55-1.13-0.89-2.5-0.75-2.11 0.21-2.5 0.76-2.5 3.5 0 1.79-0.45 3.25-1 3.25-0.55 0-0.66 0.5-0.25 1.11 0.41 0.61 0.08 1.48-0.75 1.92-1.33 0.72-1.33 0.99 0 2.44 0.83 0.89 1.05 1.61 0.5 1.59-0.55-0.02-0.33 0.41 0.5 0.94 0.83 0.53 1.05 0.98 0.5 0.98-0.55 0.01-1.11 1.14-1.25 2.52-0.22 2.16 0.23 2.57 3.25 3 1.92 0.27 3.73 1.17 4 2 0.28 0.82 1.06 1.39 1.75 1.25 0.69-0.14 1.37 0.87 1.51 2.25 0.14 1.37 1.49 3.76 3 5.3 1.51 1.55 3.87 2.95 5.24 3.11 1.38 0.17 3.63 0.91 5 1.63 1.38 0.73 3.4 2.17 4.5 3.21 1.1 1.03 3.5 2.64 5.33 3.57 2.86 1.44 3.66 2.73 5.7 9.18 1.31 4.12 2.4 7.16 2.42 6.75 0.03-0.41 1.01-0.41 2.18 0 1.17 0.41 2.28 1.65 2.46 2.75 0.17 1.1 0.36 9.42 0.41 18.5 0.05 9.07 0.07 19.87 0.05 24-0.04 7.44-0.07 7.5-2.8 7.78-1.51 0.16-2.97 0.55-3.25 0.87-0.27 0.32-1.02 3.12-1.65 6.22-1.04 5.1-1.15 5.28-1.25 1.88-0.06-2.14-0.53-3.53-1.1-3.25-0.55 0.27-0.67 1.06-0.26 1.75q0.73 1.24-0.5 0.5c-0.68-0.41-0.9-1.29-0.49-1.96 0.55-0.89 0.08-1.02-1.75-0.51-1.37 0.38-3.51 0.7-4.75 0.71-1.24 0-2.02 0.46-1.75 1.01 0.3 0.61-0.58 0.78-2.25 0.43-1.51-0.32-3.2-0.66-3.75-0.75-0.55-0.1-1.22-0.41-1.5-0.68-0.27-0.28-2.19-1.29-4.25-2.25-3.57-1.67-3.82-1.67-5.22 0-0.92 1.1-1.48 1.29-1.5 0.5-0.02-0.69-0.7-1.03-1.53-0.75-0.83 0.27-1.5 0.05-1.5-0.5 0-0.55-0.9-1-2-1-1.17 0-2.21-0.83-2.5-2-0.27-1.1-1.29-2.05-2.25-2.12-0.96-0.06-2.2-0.05-2.75 0.04-0.55 0.08-1.52-0.43-2.16-1.13-0.64-0.71-1.32-2.61-1.5-4.21-0.19-1.61-0.9-3.07-1.59-3.25-0.91-0.24-1.25 1.46-1.25 6.17 0 3.57-0.25 7.06-0.56 7.75-0.3 0.69 0.26 1.61 1.25 2.04 1 0.44 6.31 1.48 11.81 2.33 5.5 0.85 14.28 2.44 19.5 3.55 5.23 1.1 9.95 2.42 10.5 2.94 0.55 0.51 1.79 0.92 2.75 0.91 0.96-0.01 5.46 1.29 10 2.89 6.33 2.23 8.55 2.64 9.52 1.75 0.98-0.9 1.26-10.77 1.25-44.41l-0.02-43.25c-3.49-2.16-5.62-3.1-7-3.48-1.37-0.39-5.8-2.34-9.84-4.36-4.04-2.01-10.34-5.94-14-8.74-3.66-2.79-8.12-6.95-9.91-9.25-2.6-3.33-3.15-4.82-2.74-7.42 0.28-1.79 1.07-3.58 1.75-3.98 0.68-0.41 2.59-0.74 4.24-0.73 1.65 0 7.28 1.96 12.5 4.35 5.23 2.38 13.55 5.39 18.5 6.69 7.52 1.96 11.47 2.35 24 2.35 13.41 0 16.06-0.3 25-2.82 5.5-1.55 12.7-4.03 16-5.52 3.3-1.5 9.38-4.99 13.5-7.78 4.13-2.78 9.98-7.48 13.02-10.43 3.04-2.96 7.55-8.08 10.02-11.38 2.48-3.3 5.84-8.7 7.48-12 1.64-3.3 3.24-6.23 3.57-6.5 0.32-0.28 1.11-1.96 1.75-3.75 0.64-1.79 0.82-3.23 0.41-3.21-0.41 0.03-0.21-0.53 0.45-1.25 0.67-0.71 1.88-3.54 2.7-6.29 0.83-2.75 1.8-6.35 2.16-8 0.36-1.65 0.95-6.83 1.3-11.5 0.35-4.68 0.32-12.33-0.06-17-0.39-4.68-1.41-10.98-2.27-14-0.85-3.03-1.78-6.4-2.06-7.5-0.28-1.1-1.58-4.25-2.9-7-1.32-2.75-2.45-4.78-2.51-4.5zm-8.97 41.19c-0.07 0.72-1.9 4.23-4.08 7.81-2.18 3.57-5.83 8.75-8.12 11.5-2.3 2.75-7.15 7.48-10.78 10.51-3.64 3.03-8.86 6.88-11.61 8.56-2.75 1.67-7.92 4.24-11.5 5.71-3.58 1.47-9.2 3.34-12.5 4.15-3.3 0.82-10.27 1.8-15.5 2.17-7.22 0.51-11.54 0.26-18-1.06-4.67-0.95-11.65-2.87-15.5-4.26-3.85-1.39-10.15-4.37-14-6.63-3.85-2.26-7.56-4.68-8.25-5.38-0.72-0.73-2.21-1-3.5-0.65-1.24 0.35-2.92 1.38-3.75 2.3-0.83 0.93-2.06 2.67-2.75 3.88-0.69 1.21-1.23 3.66-1.22 5.45 0.03 2.27-0.88 4.23-3 6.5-1.66 1.79-3.03 3.7-3.03 4.25 0 0.55-0.34 0.82-0.75 0.6-0.41-0.23-0.84 0.11-0.96 0.75-0.12 0.63-0.52 2.5-0.91 4.15-0.38 1.65-1.63 3.84-2.79 4.86-1.15 1.02-1.98 2.26-1.84 2.75 0.14 0.49-0.2 0.66-0.75 0.39-0.55-0.28-1.45 0.4-2 1.5-0.55 1.1-1 2.9-1 4 0 1.1-0.67 2.22-1.5 2.5-0.83 0.27-1.31 0.84-1.08 1.25 0.23 0.41 0.01 5.25-0.48 10.75-0.5 5.5-0.9 28.45-0.9 51 0.01 35.13 0.22 41.11 1.48 41.75 0.82 0.41 1.46 1.99 1.44 3.5-0.03 1.51 0.65 3.31 1.5 4 0.84 0.69 1.88 1.2 2.29 1.13 0.41-0.06 1.54-0.06 2.5 0 0.96 0.07 1.98 1.02 2.25 2.12 0.29 1.17 1.33 2 2.5 2 1.1 0 2 0.45 2 1 0 0.55 0.67 0.77 1.5 0.5 0.83-0.28 1.51 0.06 1.53 0.75 0.02 0.79 0.58 0.6 1.5-0.5 1.4-1.67 1.65-1.67 5.22 0 2.06 0.96 3.98 1.97 4.25 2.25 0.27 0.27 0.95 0.58 1.5 0.68 0.55 0.09 2.24 0.43 3.75 0.75 1.67 0.35 2.55 0.18 2.25-0.43-0.27-0.55 0.51-1.01 1.75-1.01 1.24-0.01 3.38-0.33 4.75-0.71 1.83-0.51 2.3-0.38 1.75 0.51-0.41 0.67-0.19 1.55 0.49 1.96q1.23 0.74 0.5-0.5c-0.41-0.69-0.29-1.48 0.26-1.75 0.57-0.28 1.04 1.11 1.1 3.25 0.1 3.4 0.21 3.22 1.25-1.88 0.63-3.1 1.38-5.9 1.65-6.22 0.27-0.32 1.74-0.71 3.25-0.87 2.73-0.28 2.76-0.34 2.8-7.78 0.02-4.13 0-14.93-0.05-24-0.05-9.08-0.24-17.4-0.41-18.5-0.18-1.1-1.29-2.34-2.46-2.75-1.17-0.41-2.15-0.41-2.18 0-0.02 0.41-1.11-2.63-2.42-6.75-2.04-6.45-2.84-7.74-5.7-9.18-1.83-0.93-4.23-2.54-5.33-3.57-1.1-1.04-3.12-2.48-4.5-3.21-1.37-0.72-3.62-1.46-5-1.63-1.37-0.16-3.73-1.56-5.24-3.11-1.51-1.54-2.86-3.93-3-5.3-0.14-1.38-0.82-2.39-1.51-2.25-0.69 0.14-1.48-0.43-1.75-1.25-0.27-0.83-2.08-1.73-4-2-3.02-0.43-3.47-0.84-3.25-3 0.14-1.38 0.7-2.51 1.25-2.52 0.55 0 0.33-0.45-0.5-0.98-0.83-0.53-1.05-0.96-0.5-0.94 0.55 0.02 0.33-0.7-0.5-1.59-1.33-1.45-1.33-1.72 0-2.44 0.83-0.44 1.16-1.31 0.75-1.92-0.41-0.61-0.3-1.11 0.25-1.11 0.55 0 1-1.46 1-3.25 0-2.74 0.39-3.29 2.5-3.5 1.37-0.14 2.5 0.2 2.5 0.75 0 0.55-0.67 1-1.5 1-0.83 0-1.27 0.45-1 1 0.27 0.55 1.11 0.74 1.87 0.41 0.75-0.32 1.59-1.33 1.88-2.25 0.46-1.49 0.53-1.48 0.63 0.09 0.07 0.96 0.57 1.75 1.12 1.75 0.55 0 1-1.13 1-2.5 0-1.56 0.57-2.5 1.5-2.5 0.83 0 1.5 0.67 1.5 1.5 0 0.82 0.79 1.46 1.75 1.41 0.96-0.04 4.79 1.08 8.5 2.5 3.71 1.43 7.42 3.26 8.25 4.09 0.83 0.82 2.29 1.55 3.25 1.62 0.96 0.06 2.31 0.06 3 0 0.69-0.07 1.24 0.22 1.23 0.63-0.02 0.41 1.45 1.09 3.25 1.5 1.8 0.41 3.5 0.34 3.77-0.16 0.27-0.5 2.3-0.05 4.5 1 3.06 1.46 4.15 1.62 4.63 0.66 0.49-1 0.75-1 1.25 0 0.44 0.89 1.42 0.99 3.37 0.37 1.51-0.49 3.88-0.66 5.25-0.37 1.38 0.28 3.4 0.16 4.5-0.28 1.1-0.44 2.34-0.95 2.75-1.13 0.41-0.19 1.2-0.34 1.75-0.34 0.55 0 0.95-0.34 0.88-0.75-0.06-0.41-0.06-1.31 0-2 0.07-0.69 0.91-1.08 1.87-0.88 0.96 0.21 2.2-0.01 2.75-0.48 0.55-0.47 3.25-1.14 6-1.5 2.75-0.35 5.23-0.98 5.5-1.4 0.27-0.42 2.41-0.92 4.74-1.12 2.33-0.21 4.25-0.15 4.26 0.13 0.02 0.27 0.36 1.11 0.77 1.86 0.6 1.12 1.17 1.07 3.23-0.26 1.38-0.89 3.4-1.81 4.5-2.03 1.1-0.23 2.11-0.45 2.25-0.49 0.14-0.05 0.66-0.19 1.15-0.33 0.5-0.14 2.3-1.71 4-3.5 1.71-1.79 3.09-3.59 3.07-4-0.02-0.41 1.8-1.65 4.03-2.75 2.23-1.1 4.05-2.34 4.03-2.75-0.02-0.41 1.3-1.54 2.93-2.5 1.62-0.96 3.76-3.19 4.75-4.94 0.98-1.76 3.41-4.91 5.39-7 2.77-2.94 4.19-5.87 6.19-12.81 1.42-4.95 3.71-12.6 5.08-17l2.49-8c0.13 9.45 0.44 10.4 1.64 10 0.83-0.28 1.27-0.95 1-1.5-0.27-0.55-0.05-1 0.5-1 0.55 0 0.99 0.56 0.97 1.25-0.02 0.74 0.79 0.43 1.99-0.75 1.63-1.6 1.79-2.26 0.79-3.29-1-1.03-1-1.54 0.02-2.5 0.69-0.67 1.28-1.66 1.29-2.21 0.02-0.55-0.74-0.33-1.68 0.5-1.57 1.38-1.62 1.32-0.54-0.75 0.64-1.24 1.16-2.7 1.16-3.25 0-0.55-0.79-0.89-1.75-0.75-0.96 0.14-2.13 0.7-2.59 1.25-0.49 0.58-0.6 0.26-0.25-0.75 0.32-0.96 0.03-3.11-0.66-4.78-0.69-1.67-1.6-2.68-2.03-2.25-0.43 0.43-0.72-0.43-0.65-1.91 0.08-1.48-0.32-2.97-0.87-3.31-0.55-0.34-1.05-0.03-1.11 0.69zm-146.08 48.56c-2.37 4.26-5.79 10.45-7.61 13.75-2.26 4.1-2.88 6-1.95 6 0.75 0 1.18-0.23 0.97-0.5-0.21-0.28 0.73-1.4 2.1-2.5 1.37-1.1 2.5-2.9 2.52-4 0.01-1.1 0.98-3.58 2.15-5.5 1.17-1.93 3.18-4.51 4.47-5.75 1.58-1.52 2.34-3.39 2.34-5.75 0-1.93-0.15-3.5-0.34-3.5-0.19 0-2.28 3.49-4.65 7.75zm-121.51 171.84c-2.2 0.21-9.85 0.87-17 1.47-7.15 0.59-19.08 1.97-26.5 3.07-7.42 1.1-18.9 3.28-25.5 4.84-6.6 1.56-15.6 4.23-20 5.92-4.4 1.7-9.46 4-11.25 5.1-1.79 1.11-3.25 2.68-3.25 3.51 0 0.82 1.24 2.36 2.75 3.42 1.51 1.06 6.91 3.53 12 5.5 5.41 2.09 16.41 5.01 26.5 7.03 9.49 1.89 21.08 3.93 25.75 4.52 4.67 0.6 17.5 1.75 28.5 2.57 11 0.81 30.12 1.49 42.5 1.51 12.37 0.03 29.25-0.48 37.5-1.12 8.25-0.63 19.72-1.78 25.5-2.54 5.77-0.76 12.08-1.6 14-1.86 1.92-0.26 4.17-0.53 5-0.59 0.83-0.07 4.87-0.81 9-1.65 4.12-0.84 9.3-1.89 11.5-2.33 2.2-0.44 6.92-1.79 10.5-2.99 3.58-1.21 9.37-3.61 12.87-5.34 3.5-1.72 6.77-3.58 7.25-4.13 0.49-0.55 0.55-1.86 0.13-2.91-0.43-1.1-4.34-3.55-9.25-5.81-4.67-2.14-9.06-3.65-9.75-3.34-0.69 0.31-1.06 0.22-0.82-0.19 0.23-0.41-2.58-1.59-6.25-2.62-3.68-1.02-9.6-2.47-13.18-3.22-3.58-0.74-6.73-1.14-7-0.89-0.28 0.26-0.95 0.06-1.5-0.43-0.55-0.49-6.85-1.6-14-2.47-7.15-0.87-17.28-2.07-22.5-2.67-5.23-0.6-25.25-1.24-44.5-1.42-19.25-0.18-36.8-0.15-39 0.06z"/>
	</g>
</svg>